<?xml version="1.0" encoding="UTF-8"?>
<svg id="Layer_1" data-name="Layer 1" xmlns="http://www.w3.org/2000/svg" viewBox="0 0 100 100">
  <path d="M82.42,71.83c.98-.23,1.87-.37,2.73-.65,.89-.29,1.43-1.29,1.31-2.14-.14-.95-.94-1.74-1.88-1.78-.24-.01-.64,.15-.7,.33-.5,1.36-.94,2.74-1.45,4.24m-64.84,0c-.5-1.49-.92-2.83-1.41-4.14-.08-.21-.47-.44-.72-.43-.94,.01-1.74,.8-1.9,1.76-.15,.89,.43,1.9,1.36,2.19,.83,.26,1.7,.4,2.66,.62m50.62,19.49c-.08-.18-.18-.63-.45-.91-1.83-1.85-3.68-3.68-5.57-5.47-.75-.72-1.87-.64-2.55,.07-.66,.68-.71,1.74,0,2.44,1.83,1.85,3.7,3.67,5.58,5.47,.55,.52,1.24,.62,1.96,.28,.71-.32,1.04-.89,1.04-1.89m-27.34-4.79c-.02-1.08-.4-1.63-1.11-1.92-.78-.32-1.49-.13-2.09,.46-1.75,1.72-3.51,3.43-5.24,5.16-.82,.81-.84,1.93-.09,2.64,.76,.73,1.83,.7,2.69-.13,1.74-1.68,3.48-3.37,5.18-5.1,.36-.36,.54-.89,.68-1.11m33.97-15.47c-1.01,.07-1.6,.4-1.92,1.09-.37,.78-.16,1.48,.42,2.06,1.76,1.75,3.53,3.5,5.32,5.22,.83,.79,1.88,.79,2.63,.08,.76-.72,.76-1.82-.07-2.65-1.73-1.73-3.48-3.46-5.26-5.15-.35-.33-.86-.51-1.12-.66m-47.55,2.07c-.08-1-.42-1.57-1.13-1.88-.8-.35-1.5-.14-2.09,.44-1.76,1.71-3.52,3.42-5.25,5.15-.84,.84-.87,1.91-.11,2.64,.75,.74,1.83,.73,2.7-.1,1.77-1.7,3.52-3.42,5.24-5.16,.34-.34,.51-.85,.65-1.1M46.48,18.81c-.08-.14-.1-.19-.15-.23-.58-.57-1.16-1.14-1.74-1.72-.79-.79-.9-1.6-.3-2.19,.62-.62,1.4-.52,2.23,.27,.64,.61,1.27,1.23,1.99,1.92,.17-4.04-3.94-7-8.32-6.18-.64,4.49,2.32,8.36,6.29,8.14m7.32-3.96c3.87,.06,6.89-4.18,5.97-8.17-4.87-.48-8.83,2.57-8.24,6.49,.75-.64,1.44-1.25,2.15-1.84,.71-.58,1.51-.57,2.04-.02,.55,.59,.47,1.4-.24,2.05-.52,.48-1.07,.95-1.68,1.49m12.32,60.65c.32,.48,.56,1.03,.96,1.43,2.61,2.61,5.26,5.19,7.9,7.77,.43,.42,.84,.87,1.31,1.25,.74,.6,1.76,.53,2.42-.11,.65-.63,.72-1.64,.16-2.38-.11-.15-.24-.27-.37-.4-2.96-2.9-5.92-5.81-8.88-8.71-.19-.19-.4-.38-.64-.51-1.22-.66-2.66,.17-2.85,1.64m-32.4,.23c0-1.07-.35-1.63-1.06-1.94-.79-.35-1.5-.16-2.1,.42-3.07,3.01-6.14,6.01-9.2,9.04-.79,.78-.79,1.87-.09,2.58,.74,.74,1.86,.74,2.7-.07,3.06-2.98,6.1-5.96,9.13-8.98,.34-.34,.51-.84,.62-1.04m30.09,2.32c-1.04,.07-1.61,.41-1.92,1.11-.36,.82-.1,1.52,.51,2.12,3.02,2.96,6.03,5.93,9.06,8.88,.88,.85,1.91,.88,2.69,.16,.8-.75,.79-1.81-.1-2.7-3.01-2.97-6.03-5.94-9.07-8.88-.37-.36-.9-.54-1.17-.69m-36.74,13.03c.65-.43,1.23-.69,1.67-1.11,2.91-2.81,5.79-5.66,8.68-8.5,.25-.25,.62-.54,.65-.84,.05-.61,.11-1.4-.22-1.82-.33-.42-1.13-.65-1.73-.66-.42,0-.92,.43-1.27,.77-2.91,2.82-5.79,5.66-8.68,8.5-.21,.21-.53,.43-.57,.68-.09,.59-.24,1.28-.01,1.77,.23,.48,.91,.76,1.49,1.21m37.78-19.24c-.67-.53-1.48-1.21-2.34-1.83-1.7-1.23-3.42-2.43-5.56-2.82-1.52-.28-2.5,.3-2.89,1.78-.25,.95-.43,1.93-.56,2.91-.91,6.78-4.11,12.2-9.86,16.14-.42,.29-.74,.72-1.21,1.19,5.14,1.17,10.05,1.18,15,.04-1.81-3.34-1.31-5.15,1.96-7.34-1.18-3.01,.26-6.06,3.88-6.59,.54-1.16,1.03-2.23,1.6-3.47M23.18,40.63c-6.66,9.13-7.04,21.93-2.64,30.65,1.38-1.31,2.57-2.91,4.74-2.91,2.16,0,3.62,1.08,4.48,2.97,3.79-1.36,6.48,.94,6.78,3.99,1.61,.17,2.97,.82,3.83,2.25,.86,1.42,.77,2.9,.3,4.11,1.06,1.06,1.98,1.97,2.94,2.91,3.06-2.45,5.33-5.62,6.36-9.56,.55-2.11,.82-4.3,1.32-6.42,.78-3.32,3.3-4.78,6.69-3.93,2.86,.71,5.19,2.35,7.43,4.13,1.43,1.13,2.67,2.59,4.87,2.4-.05,.07,.01,0,.05-.07,1.69-3.18,5.14-3.72,7.72-1.2,.45,.44,.84,.94,1.31,1.47,4.31-8.4,4.74-22.12-4.08-32.93-8.71-10.68-21.99-13.27-30.64-11.38,.02,.15,.02,.3,.05,.44,.74,3.98,1.45,7.96,2.25,11.93,.36,1.78,.78,3.57,1.41,5.28,.58,1.57,1.54,1.82,3.06,1.09,.93-.44,1.82-.98,2.76-1.41,3.34-1.5,6.4-.75,8.62,2.1,.48,.62,.95,1.25,1.41,1.89,1.25,1.71,2.9,2.89,4.91,3.6,2.34,.83,4.74,1.11,7.21,.93,1-.07,1.65,.39,1.73,1.2,.08,.83-.45,1.43-1.45,1.47-1.34,.04-2.7,.09-4.02-.06-4.29-.46-8.04-1.98-10.58-5.64-.38-.54-.82-1.05-1.25-1.56-1.89-2.24-3.46-2.53-6.1-1.15-.94,.49-1.87,1.02-2.87,1.4-2.11,.79-4.15,.17-5.35-1.7-.61-.95-1.13-2.03-1.36-3.11-.76-3.6-1.37-7.24-2.06-10.86-.34-1.78-.74-3.55-1.12-5.39-6.97,1.86-12.61,5.46-17.08,10.82,.11,.14,.14,.2,.19,.23,.19,.15,.39,.29,.58,.44,4.71,3.59,7.14,8.09,6.38,14.13-.29,2.32-.02,4.73,.24,7.07,.19,1.71,.76,3.38,1.2,5.06,.25,.94-.03,1.67-.81,1.93-.76,.25-1.46-.17-1.81-1.08-.03-.08-.05-.17-.08-.26-1.41-4.25-1.89-8.59-1.54-13.04,.11-1.4,.22-2.85-.04-4.21-.67-3.55-3.11-5.93-5.94-8M61.19,3.92c1.16,.65,1.49,1.63,1.48,2.92-.01,2.31-.14,4.56-1.49,6.56-1.75,2.59-4.19,4.04-7.38,4.23-.61,.04-1.23-.02-1.83,.06-.22,.03-.56,.36-.56,.56-.04,1.83-.03,3.65-.03,5.57,10.59,.66,19.37,4.86,26,12.96,6.63,8.09,8.85,17.39,7.24,27.65,.25,.06,.44,.12,.64,.16,2.23,.45,3.89,2.36,3.96,4.58,.07,2.18-1.5,4.21-3.73,4.76-.86,.21-1.72,.38-2.61,.57,2.83,2.98,1.85,6.64-1.27,8.01,.9,3.88-.36,5.94-4.05,6.64-.55,3.77-3.79,5.17-6.82,3.94-.62,1.6-1.87,2.51-3.5,3h-1.84c-1.41-.5-2.47-1.46-3.47-2.52-.52-.55-1.11-1.04-1.61-1.6-.37-.42-.75-.48-1.28-.34-6,1.56-12,1.59-18,.02-.6-.16-.98-.04-1.44,.39-1.57,1.47-2.84,3.31-5.01,4.06h-1.83c-1.54-.54-2.86-1.34-3.5-3.02-1.53,.63-3.03,.68-4.48-.16-1.45-.85-2.12-2.17-2.29-3.75-3.73-.68-5.25-3.16-4.04-6.63-1.54-.72-2.69-1.8-2.96-3.56-.27-1.74,.37-3.17,1.7-4.44-.86-.2-1.62-.37-2.38-.54-2.47-.57-4.09-2.49-4.03-4.78,.05-2.35,1.77-4.21,4.29-4.66,.06-.01,.11-.04,.31-.11-1.63-10.17,.55-19.51,7.15-27.64,6.61-8.14,15.4-12.31,26.02-12.95v-2.25c-.69,0-1.35,.01-2.02,0-5-.1-8.99-3.95-9.16-8.85-.03-.9-.03-1.8-.01-2.7,.04-1.31,.86-2.14,2.19-2.15,1.28-.01,2.57-.04,3.84,.1,2.12,.25,3.93,1.23,5.46,2.79,.1-.25,.18-.41,.24-.57,1.24-3.29,3.59-5.35,7.1-6.11,.14-.03,.27-.11,.41-.17h4.59Z"/>
</svg>