<?xml version="1.0" standalone="no"?>
<!DOCTYPE svg PUBLIC "-//W3C//DTD SVG 20010904//EN"
 "http://www.w3.org/TR/2001/REC-SVG-20010904/DTD/svg10.dtd">
<svg version="1.0" xmlns="http://www.w3.org/2000/svg"
 width="4001.000000pt" height="3100.000000pt" viewBox="0 0 4001.000000 3100.000000"
 preserveAspectRatio="xMidYMid meet">

<g transform="translate(0.000000,3100.000000) scale(0.100000,-0.100000)"
fill="#000000" stroke="none">
<path d="M18973 30120 c-1155 -66 -2186 -507 -2898 -1241 -609 -628 -921
-1420 -891 -2259 3 -96 15 -287 26 -425 40 -523 37 -665 -20 -891 -71 -281
-213 -523 -492 -835 -208 -232 -260 -302 -286 -378 -26 -75 -6 -214 42 -288
36 -58 108 -120 246 -213 398 -270 497 -493 575 -1295 53 -547 91 -703 211
-871 57 -81 126 -137 229 -185 136 -63 206 -74 470 -73 181 0 283 6 475 28
295 33 632 45 775 27 194 -25 340 -84 429 -174 143 -144 272 -532 411 -1231
60 -301 71 -329 154 -373 l44 -23 1893 2 1892 3 43 30 c57 40 92 108 91 178 0
32 -20 122 -51 232 -102 354 -189 747 -251 1120 -20 120 -40 209 -54 241 -45
97 -138 177 -245 208 -43 13 -104 16 -282 16 -199 0 -235 2 -292 20 -109 34
-195 110 -244 217 -26 54 -28 70 -33 244 -6 180 -7 187 -37 251 -59 125 -163
206 -293 227 -36 6 -122 11 -191 11 -90 0 -139 5 -175 17 -115 39 -202 121
-246 235 -18 44 -22 84 -27 238 -6 173 -8 189 -33 243 -35 74 -116 155 -193
192 -57 27 -69 29 -245 36 -204 7 -240 15 -325 74 -61 42 -98 87 -133 163 -26
56 -27 62 -27 247 0 185 1 192 27 247 31 67 96 140 153 173 84 49 121 57 315
64 l185 7 62 33 c77 41 146 113 181 189 24 53 27 70 33 242 4 102 11 199 17
215 28 88 85 165 158 216 79 54 114 62 314 69 203 7 232 14 326 82 50 35 117
129 135 186 6 20 14 118 18 217 6 173 8 182 37 245 39 84 110 155 194 194 63
30 70 31 251 36 l186 6 76 37 c87 43 146 102 186 187 25 54 26 60 26 255 l0
200 -29 60 c-48 96 -138 174 -241 207 -16 6 -111 13 -210 17 -175 6 -182 7
-247 38 -85 40 -152 107 -192 193 -29 63 -30 70 -36 250 -6 181 -7 187 -37
252 -40 86 -105 151 -191 191 -65 31 -72 32 -252 38 -195 6 -230 13 -307 62
-51 33 -116 106 -142 163 -35 74 -43 137 -39 288 4 115 9 152 27 199 42 107
122 186 232 229 45 17 85 22 239 27 178 6 187 7 245 36 244 119 298 441 106
632 -61 62 -120 88 -284 128 -481 117 -1080 172 -1564 145z m-1245 -1925 c218
-52 372 -243 372 -462 0 -250 -166 -443 -415 -483 -275 -44 -544 191 -545 475
0 129 49 243 145 341 119 120 281 167 443 129z m1935 -370 c85 -22 154 -61
219 -123 101 -96 148 -205 148 -342 0 -134 -47 -248 -139 -341 -101 -101 -222
-146 -372 -137 -147 9 -260 70 -351 190 -58 76 -87 157 -95 258 -23 315 286
574 590 495z m-741 -1299 c36 -8 93 -27 125 -43 70 -34 168 -129 205 -199 140
-263 15 -583 -268 -685 -45 -17 -82 -22 -154 -22 -72 0 -109 5 -154 22 -199
72 -326 250 -326 456 0 132 49 247 145 341 69 68 144 109 239 129 80 17 107
18 188 1z m313 -4366 c378 -130 441 -644 106 -860 -120 -77 -281 -97 -414 -51
-281 96 -409 422 -269 685 15 28 54 78 87 111 131 130 319 174 490 115z"/>
<path d="M21381 29214 c-133 -36 -247 -132 -309 -261 -37 -78 -37 -79 -37
-208 0 -129 0 -130 37 -205 46 -95 139 -187 230 -230 190 -89 429 -40 566 115
208 237 141 604 -137 749 -109 56 -236 71 -350 40z"/>
<path d="M22565 28513 c-172 -62 -295 -207 -325 -383 -41 -244 115 -482 357
-545 275 -72 555 117 596 401 30 207 -76 405 -267 500 -77 38 -84 39 -195 42
-91 2 -127 -1 -166 -15z"/>
<path d="M23998 27579 c-60 -14 -156 -66 -205 -112 -102 -93 -153 -212 -153
-357 0 -198 98 -353 277 -437 66 -32 87 -37 173 -41 81 -4 110 -1 169 17 137
42 259 154 312 288 19 49 23 76 23 173 0 97 -4 124 -23 173 -53 133 -173 245
-308 287 -69 21 -195 26 -265 9z"/>
<path d="M22628 26421 c-119 -38 -236 -141 -288 -253 -150 -323 80 -688 433
-688 192 0 350 97 433 265 132 267 -3 588 -285 675 -82 26 -214 26 -293 1z"/>
<path d="M21514 25505 c-163 -35 -305 -166 -355 -326 -24 -76 -25 -205 -3
-280 52 -176 209 -313 392 -341 235 -37 469 112 536 341 22 75 21 204 -3 280
-50 162 -192 291 -360 327 -80 17 -127 17 -207 -1z"/>
<path d="M20500 24339 c-120 -20 -249 -109 -321 -220 -97 -152 -93 -372 12
-528 221 -331 741 -255 859 126 26 86 27 209 1 292 -52 169 -207 303 -381 330
-74 12 -94 12 -170 0z"/>
<path d="M22568 24219 c-126 -29 -255 -138 -316 -266 -37 -77 -37 -79 -37
-203 0 -124 0 -126 37 -203 50 -105 130 -185 233 -234 66 -31 89 -37 169 -41
110 -5 177 8 258 50 79 42 134 92 180 162 178 276 38 649 -276 732 -56 15
-190 17 -248 3z"/>
<path d="M21650 22950 c-93 -22 -201 -91 -260 -165 -199 -249 -118 -607 166
-742 72 -34 88 -38 180 -41 165 -7 268 33 374 144 157 163 180 404 57 596 -63
99 -166 172 -284 203 -61 16 -176 18 -233 5z"/>
<path d="M23290 22350 c-320 -57 -494 -404 -348 -694 79 -157 255 -266 428
-266 358 1 592 375 435 696 -67 137 -207 241 -355 264 -73 11 -96 11 -160 0z"/>
<path d="M1250 10775 l0 -5345 765 0 765 0 0 1646 c0 905 3 1643 8 1640 4 -2
513 -743 1132 -1645 l1125 -1641 908 0 c499 0 907 3 907 6 0 3 -553 802 -1230
1775 -676 974 -1230 1774 -1230 1778 0 4 504 738 1120 1631 l1121 1625 -898 3
c-494 1 -903 0 -909 -2 -6 -2 -469 -667 -1030 -1476 l-1019 -1472 -5 2543 -5
2544 -719 820 c-396 451 -739 841 -763 867 l-43 47 0 -5344z"/>
<path d="M9430 12180 c0 -2530 4 -3985 10 -4095 14 -222 35 -395 71 -584 247
-1266 1076 -1971 2439 -2071 92 -7 474 -10 1044 -8 l899 3 -693 790 -693 790
-191 6 c-105 4 -227 12 -271 19 -270 39 -500 149 -645 307 -177 194 -277 457
-310 818 -6 67 -10 602 -10 1367 l0 1258 1253 2 1254 3 -641 732 -641 732
-612 0 -613 1 0 989 0 990 -796 908 c-438 499 -809 921 -825 938 l-29 30 0
-3925z"/>
<path d="M20930 13848 l0 -2198 -123 93 c-133 102 -235 160 -397 230 -287 124
-629 215 -990 264 -191 26 -704 26 -905 0 -796 -103 -1417 -407 -1980 -972
-490 -491 -788 -1022 -928 -1655 -98 -438 -108 -999 -27 -1451 147 -816 604
-1556 1290 -2090 458 -356 991 -582 1565 -663 350 -49 764 -49 1105 0 653 94
1253 362 1764 790 587 491 947 1120 1081 1889 63 358 58 118 62 3315 l3 2916
-736 839 c-405 462 -747 851 -760 865 l-24 25 0 -2197z m-1770 -3049 c470 -42
881 -231 1200 -549 277 -278 456 -623 537 -1037 25 -127 27 -158 27 -393 1
-276 -7 -342 -64 -565 -139 -538 -495 -985 -977 -1224 -592 -295 -1322 -273
-1881 55 -201 119 -431 324 -565 505 -490 665 -527 1615 -89 2323 375 606
1083 952 1812 885z"/>
<path d="M27537 12239 c-1063 -88 -1788 -623 -2096 -1547 -65 -194 -112 -416
-148 -692 -16 -124 -18 -308 -20 -2352 l-4 -2218 761 0 760 0 3 2138 2 2137
27 107 c66 265 171 452 350 624 171 164 365 265 607 314 88 18 138 20 450 20
l351 0 0 740 0 740 -472 -1 c-260 -1 -517 -5 -571 -10z"/>
<path d="M33705 12239 c-960 -90 -1784 -547 -2389 -1323 -405 -520 -628 -1084
-692 -1756 -19 -197 -14 -639 10 -815 90 -676 322 -1217 743 -1734 115 -141
371 -395 508 -505 511 -407 1059 -634 1735 -716 144 -18 563 -24 705 -11 583
55 1221 262 1558 506 65 47 121 85 123 85 2 0 4 -117 4 -260 l0 -260 761 0
760 0 -4 1808 c-3 1326 -7 1836 -16 1917 -67 613 -201 1045 -455 1473 -132
222 -278 403 -487 607 -167 162 -309 277 -509 410 -491 326 -1001 508 -1598
569 -165 17 -596 20 -757 5z m573 -1449 c380 -41 732 -182 1008 -404 110 -88
275 -263 357 -377 88 -123 202 -352 255 -509 207 -625 121 -1319 -229 -1841
-434 -648 -1227 -959 -2021 -793 -545 114 -996 447 -1271 936 -245 438 -317
1022 -188 1531 200 787 822 1342 1626 1451 123 17 333 19 463 6z"/>
<path d="M38755 12229 c-234 -39 -443 -209 -539 -437 -28 -66 -56 -207 -56
-282 0 -75 28 -216 56 -282 69 -163 193 -297 348 -373 110 -55 198 -75 331
-75 133 0 221 20 333 76 484 238 537 935 96 1250 -155 110 -370 157 -569 123z
m285 -206 c228 -62 390 -276 390 -513 0 -253 -179 -473 -428 -525 -85 -18
-129 -18 -217 0 -246 52 -425 270 -425 518 0 90 16 159 56 242 111 232 370
347 624 278z"/>
<path d="M38630 11510 l0 -410 100 0 100 0 0 115 c0 92 3 115 14 115 8 0 41
-50 74 -112 l59 -113 108 -3 c126 -3 123 -18 29 145 -35 62 -64 115 -64 119 0
3 18 24 41 46 63 61 84 116 84 218 -1 67 -5 94 -23 126 -63 122 -168 163 -414
164 l-108 0 0 -410z m284 216 c45 -19 66 -52 66 -103 0 -60 -47 -112 -108
-120 l-42 -6 0 122 0 121 25 0 c14 0 41 -6 59 -14z"/>
<path d="M5860 2297 l0 -1017 180 0 180 0 2 549 3 549 499 -554 c275 -305 508
-562 518 -571 17 -16 18 18 18 1000 l0 1017 -180 0 -180 0 -2 -552 -3 -553
-509 565 c-280 311 -513 569 -518 575 -4 5 -8 -449 -8 -1008z"/>
<path d="M13750 2298 l0 -1018 180 0 180 0 2 550 3 550 514 -570 c283 -313
516 -570 518 -570 1 0 3 457 3 1015 l0 1015 -180 0 -180 0 -2 -552 -3 -551
-490 543 c-269 299 -502 557 -517 574 l-27 31 -1 -1017z"/>
<path d="M19137 2302 c-246 -554 -447 -1010 -447 -1014 0 -5 87 -8 193 -8
l193 0 54 133 55 132 401 3 401 2 56 -132 55 -133 197 -3 c157 -2 196 0 192
10 -28 69 -891 2005 -896 2010 -3 4 -207 -446 -454 -1000z m584 -125 l127
-302 -255 -3 c-141 -1 -258 0 -260 2 -3 2 53 142 123 310 71 168 131 303 133
300 3 -3 62 -141 132 -307z"/>
<path d="M30067 2353 c-234 -527 -437 -984 -451 -1016 l-26 -57 197 2 198 3
55 133 54 132 401 0 400 0 55 -135 55 -135 198 0 c109 0 196 3 194 8 -3 4
-204 455 -447 1002 -243 547 -445 1001 -449 1008 -5 9 -170 -351 -434 -945z
m558 -168 c70 -168 126 -308 123 -310 -3 -3 -120 -4 -260 -3 l-255 3 74 175
c161 383 185 440 188 440 1 0 60 -137 130 -305z"/>
<path d="M36213 2312 c-243 -549 -445 -1005 -449 -1014 -6 -17 7 -18 189 -18
l194 0 56 133 55 132 401 3 401 2 9 -22 c5 -13 30 -74 56 -135 l47 -113 194 0
c107 0 194 2 194 5 0 9 -891 2010 -898 2017 -4 3 -206 -442 -449 -990z m577
-127 c67 -159 124 -296 127 -302 4 -10 -51 -13 -257 -13 -166 0 -260 4 -258
10 26 77 255 607 260 602 3 -4 61 -137 128 -297z"/>
<path d="M2155 3279 c-393 -57 -715 -312 -845 -668 -182 -498 68 -1055 567
-1265 133 -57 232 -77 393 -83 166 -6 267 8 404 58 106 38 250 125 242 146 -3
8 -45 69 -93 136 -47 67 -87 123 -88 125 -1 1 -33 -16 -71 -38 -117 -69 -186
-85 -354 -85 -132 1 -152 3 -225 29 -123 42 -202 91 -286 176 -176 177 -233
441 -148 693 67 199 239 354 465 419 119 34 298 32 409 -5 44 -14 107 -42 139
-62 33 -20 63 -34 67 -33 5 2 49 61 100 133 l92 129 -34 28 c-49 41 -173 102
-264 131 -141 44 -319 58 -470 36z"/>
<path d="M4155 3280 c-96 -15 -223 -58 -318 -108 -605 -317 -728 -1136 -243
-1618 132 -131 278 -215 464 -266 105 -30 392 -32 492 -5 310 85 535 267 672
542 75 151 103 274 101 460 0 116 -5 156 -26 238 -64 241 -213 455 -410 589
-88 60 -231 124 -327 148 -98 24 -311 34 -405 20z m289 -345 c214 -45 407
-218 481 -432 89 -256 28 -520 -165 -713 -96 -97 -184 -147 -305 -176 -104
-24 -257 -15 -355 21 -192 70 -339 222 -405 416 -37 110 -45 262 -21 371 58
263 264 467 521 518 65 13 175 11 249 -5z"/>
<path d="M9900 3285 c-8 -2 -49 -9 -90 -15 -337 -55 -652 -300 -780 -606 -161
-388 -71 -820 231 -1109 198 -189 424 -282 709 -292 166 -6 267 8 404 58 104
37 250 125 242 145 -4 11 -164 242 -182 263 -1 2 -16 -6 -32 -18 -111 -79
-255 -116 -421 -109 -198 9 -350 74 -481 207 -127 128 -183 271 -183 466 0
165 40 288 134 413 145 192 458 302 705 247 83 -18 184 -59 234 -95 17 -12 34
-20 40 -18 5 2 50 61 101 132 l92 130 -33 28 c-86 71 -277 147 -424 167 -70
10 -228 13 -266 6z"/>
<path d="M16585 3279 c-160 -24 -333 -90 -466 -179 -153 -103 -303 -291 -369
-463 -53 -136 -64 -198 -64 -362 0 -176 20 -276 83 -411 54 -115 103 -185 196
-282 132 -139 308 -240 505 -292 62 -16 125 -23 235 -27 175 -6 285 12 426 69
102 41 222 117 214 136 -4 10 -121 179 -181 260 -1 2 -33 -15 -71 -38 -113
-68 -183 -85 -353 -84 -128 0 -154 3 -222 26 -178 59 -331 184 -401 329 -166
339 -46 731 274 898 122 64 212 86 359 85 108 0 136 -4 205 -27 44 -14 107
-42 139 -62 33 -20 63 -34 67 -33 4 2 49 61 100 133 l91 129 -33 28 c-83 69
-281 148 -422 167 -90 13 -225 12 -312 0z"/>
<path d="M28540 3285 c-8 -2 -49 -9 -90 -15 -211 -35 -449 -162 -591 -318
-110 -120 -202 -292 -241 -448 -32 -132 -30 -342 5 -474 88 -334 330 -594 661
-709 241 -85 520 -82 752 8 81 31 224 115 224 131 0 7 -170 252 -185 269 -2 2
-17 -6 -34 -18 -45 -33 -149 -78 -216 -96 -85 -22 -241 -19 -345 5 -324 78
-523 327 -523 655 0 338 215 591 563 661 165 33 323 7 479 -78 71 -39 75 -40
88 -22 64 86 173 243 173 250 0 11 -96 72 -165 107 -73 36 -199 74 -289 86
-70 10 -228 13 -266 6z"/>
<path d="M11110 2275 l0 -995 180 0 180 0 0 995 0 995 -180 0 -180 0 0 -995z"/>
<path d="M12110 2275 l0 -995 520 0 520 0 0 170 0 170 -340 0 -340 0 0 185 0
185 250 0 250 0 0 170 0 170 -250 0 -250 0 2 298 3 297 338 3 337 2 0 170 0
170 -520 0 -520 0 0 -995z"/>
<path d="M17840 2275 l0 -995 180 0 180 0 0 995 0 995 -180 0 -180 0 0 -995z"/>
<path d="M22090 2275 l0 -995 520 0 520 0 0 170 0 170 -335 0 -335 0 0 185 0
185 245 0 245 0 0 170 0 170 -245 0 -245 0 0 300 0 300 335 0 335 0 0 170 0
170 -520 0 -520 0 0 -995z"/>
<path d="M23730 2276 l0 -996 263 0 c352 1 481 20 643 95 310 143 499 421 535
789 24 252 -38 521 -162 703 -106 155 -275 281 -459 342 -138 45 -202 52 -517
58 l-303 5 0 -996z m602 639 c144 -30 279 -124 367 -256 132 -198 150 -484 43
-696 -87 -172 -227 -289 -394 -328 -35 -8 -107 -15 -160 -15 l-98 0 0 655 0
655 88 0 c48 0 117 -7 154 -15z"/>
<path d="M25710 2583 c0 -643 2 -694 20 -783 53 -260 226 -454 465 -521 32 -9
101 -14 190 -14 117 0 152 4 210 22 188 60 337 204 409 395 54 143 56 174 56
909 l0 679 -180 0 -179 0 -3 -697 -3 -698 -24 -62 c-27 -73 -95 -154 -155
-185 -58 -30 -167 -36 -237 -13 -76 26 -148 100 -180 185 l-24 65 -3 703 -3
702 -179 0 -180 0 0 -687z"/>
<path d="M31540 3100 l0 -170 205 0 205 0 0 -825 0 -825 180 0 180 0 0 825 0
825 205 0 205 0 0 170 0 170 -590 0 -590 0 0 -170z"/>
<path d="M33270 2275 l0 -995 180 0 180 0 0 995 0 995 -180 0 -180 0 0 -995z"/>
<path d="M34064 3238 c54 -129 881 -1985 886 -1991 6 -6 406 884 884 1966 l26
57 -206 -2 -205 -3 -245 -580 c-135 -319 -247 -581 -248 -583 -2 -1 -110 251
-241 560 -131 310 -243 573 -248 586 -10 22 -12 22 -214 22 l-203 0 14 -32z"/>
</g>
</svg>
