<?xml version="1.0" standalone="no"?>
<!DOCTYPE svg PUBLIC "-//W3C//DTD SVG 20010904//EN"
 "http://www.w3.org/TR/2001/REC-SVG-20010904/DTD/svg10.dtd">
<svg version="1.0" xmlns="http://www.w3.org/2000/svg"
 width="4500.000000pt" height="1343.000000pt" viewBox="0 0 4500.000000 1343.000000"
 preserveAspectRatio="xMidYMid meet">

<g transform="translate(0.000000,1343.000000) scale(0.100000,-0.100000)"
fill="#000000" stroke="none">
<path d="M12600 8597 l0 -4397 630 0 630 0 2 1355 3 1355 929 -1355 930 -1355
748 0 c466 0 747 4 743 9 -3 6 -454 655 -1002 1443 -547 788 -1002 1443 -1010
1454 -14 22 146 258 1748 2577 l88 127 -747 0 -747 0 -825 -1192 c-454 -655
-833 -1201 -842 -1212 -16 -20 -17 92 -18 2067 l0 2088 -606 692 c-334 381
-617 703 -630 717 l-24 25 0 -4398z"/>
<path d="M19330 9740 c0 -2077 4 -3299 10 -3395 62 -911 410 -1537 1041 -1874
185 -98 417 -179 638 -221 273 -52 284 -53 1160 -57 804 -4 823 -4 810 15 -8
10 -265 304 -572 654 l-558 635 -177 6 c-97 4 -211 13 -252 21 -423 79 -662
353 -725 833 -13 95 -15 290 -15 1178 l0 1065 1029 2 1029 3 -526 602 -527
602 -502 0 -503 1 0 813 -1 812 -641 730 c-352 402 -658 750 -679 775 l-39 45
0 -3245z"/>
<path d="M4495 12944 c-680 -69 -1196 -234 -1689 -538 -679 -420 -1136 -1042
-1281 -1743 -49 -238 -60 -551 -30 -888 27 -312 31 -554 11 -675 -49 -291
-172 -514 -461 -835 -185 -205 -223 -275 -210 -384 15 -122 57 -177 225 -291
151 -102 231 -175 291 -268 111 -169 156 -354 204 -842 26 -263 51 -417 81
-508 65 -190 194 -315 379 -367 110 -31 352 -31 645 -1 140 15 320 29 400 33
340 14 567 -56 666 -204 98 -147 195 -462 290 -941 24 -123 51 -236 59 -252
20 -39 69 -77 113 -90 52 -14 3033 -14 3085 1 79 22 145 116 135 191 -3 18
-30 125 -62 238 -70 252 -134 539 -181 814 -22 124 -45 225 -56 248 -31 61
-83 112 -146 144 -58 29 -58 29 -288 34 -214 5 -233 7 -277 29 -66 32 -125 93
-156 159 -24 51 -27 73 -32 212 -5 143 -8 160 -33 212 -31 62 -84 115 -149
149 -37 20 -64 24 -203 29 -143 6 -166 9 -216 32 -69 32 -127 88 -160 154 -21
43 -24 68 -30 206 -6 151 -7 160 -38 222 -36 74 -82 119 -160 154 -48 22 -73
26 -210 31 -137 6 -162 9 -205 30 -66 32 -122 91 -155 160 -24 53 -26 65 -26
206 0 133 3 155 22 197 30 66 96 133 161 165 52 25 69 28 217 33 146 6 164 9
210 32 53 27 123 95 148 145 24 45 37 137 37 254 0 84 5 120 20 163 27 72 88
139 157 173 53 25 69 28 218 33 158 6 161 7 223 40 69 36 110 79 144 150 19
38 23 68 28 200 5 139 8 161 32 210 31 66 86 123 153 158 46 23 64 26 210 32
131 5 168 10 206 27 67 30 124 86 159 155 30 60 30 63 30 218 0 155 0 158 -30
218 -36 71 -83 115 -160 150 -49 23 -72 27 -210 32 -134 4 -161 8 -202 28 -65
32 -125 94 -156 160 -24 51 -27 73 -32 212 -5 132 -9 162 -28 200 -35 74 -78
117 -149 152 -64 31 -72 33 -223 38 -144 5 -160 8 -212 33 -62 30 -115 83
-150 149 -20 38 -23 60 -26 200 -4 153 -3 159 23 215 32 71 84 126 150 161 46
23 64 26 212 32 147 7 167 10 216 33 66 33 121 86 155 152 23 43 27 62 27 140
0 79 -4 97 -28 142 -35 68 -88 120 -151 149 -89 41 -392 103 -676 140 -119 15
-751 28 -855 18z m-883 -1589 c189 -66 303 -274 254 -465 -41 -160 -159 -270
-324 -300 -162 -29 -338 63 -415 219 -30 61 -32 72 -32 171 0 93 3 112 27 162
50 108 156 195 273 225 58 15 155 9 217 -12z m1630 -323 c116 -57 196 -166
219 -301 32 -181 -93 -374 -279 -431 -81 -25 -143 -25 -224 0 -155 48 -257
170 -283 336 -14 93 32 229 106 309 84 91 171 126 305 122 79 -2 100 -7 156
-35z m-600 -1070 c79 -39 159 -120 196 -199 24 -51 27 -70 27 -158 0 -88 -3
-107 -27 -158 -38 -80 -117 -160 -197 -200 -60 -29 -73 -32 -161 -32 -132 1
-192 26 -281 114 -88 88 -113 150 -113 276 0 70 5 103 23 148 42 106 160 209
274 238 18 4 69 7 114 5 68 -2 92 -8 145 -34z m211 -3580 c162 -80 256 -267
217 -433 -71 -304 -426 -420 -650 -212 -40 37 -70 77 -92 121 -31 62 -33 73
-33 172 0 94 3 111 27 160 51 104 126 172 231 211 41 15 72 19 143 16 79 -2
100 -7 157 -35z"/>
<path d="M28788 11126 l-3 -1806 -100 76 c-350 267 -1004 440 -1595 421 -573
-18 -1039 -161 -1469 -448 -180 -121 -307 -227 -477 -400 -229 -235 -373 -434
-510 -704 -204 -405 -287 -774 -287 -1280 0 -260 12 -399 54 -605 105 -515
354 -978 739 -1374 457 -470 978 -735 1635 -833 93 -13 185 -17 415 -18 332 0
478 16 740 81 679 167 1290 587 1662 1141 215 320 354 703 420 1163 l22 155 3
2406 4 2406 -622 709 c-342 390 -623 711 -625 713 -2 2 -5 -809 -6 -1803z
m-1268 -2535 c320 -71 579 -209 795 -426 61 -60 138 -149 172 -198 285 -404
374 -934 243 -1447 -110 -433 -413 -810 -805 -1004 -229 -113 -408 -156 -685
-163 -169 -5 -212 -2 -319 16 -463 79 -859 350 -1101 754 -208 348 -279 816
-188 1237 123 569 509 1004 1046 1180 65 21 160 45 212 54 52 8 106 18 120 20
14 3 113 3 220 1 150 -3 217 -8 290 -24z"/>
<path d="M6585 12206 c-119 -29 -213 -107 -268 -224 -29 -61 -32 -76 -32 -162
0 -86 3 -101 32 -162 59 -125 161 -204 294 -229 168 -31 348 59 422 212 91
186 28 413 -144 516 -96 57 -201 74 -304 49z"/>
<path d="M7602 11639 c-115 -20 -227 -104 -285 -214 -31 -57 -32 -65 -32 -175
0 -107 2 -119 29 -175 83 -168 275 -257 454 -211 84 21 141 56 201 122 71 78
95 145 96 264 0 82 -4 103 -27 153 -37 79 -62 112 -119 157 -86 68 -206 98
-317 79z"/>
<path d="M8715 10857 c-115 -39 -199 -111 -248 -215 -29 -61 -32 -75 -32 -168
0 -96 2 -103 38 -176 43 -87 98 -142 186 -185 51 -25 66 -28 166 -28 104 0
114 2 176 32 80 39 150 111 187 191 24 51 27 69 27 167 0 101 -2 115 -29 170
-39 80 -111 149 -193 188 -56 26 -82 32 -153 34 -52 2 -101 -2 -125 -10z"/>
<path d="M7610 9911 c-189 -62 -307 -248 -280 -440 19 -134 95 -237 218 -298
72 -36 81 -38 171 -38 120 1 188 25 265 96 66 60 101 117 122 201 46 179 -43
371 -211 453 -52 26 -72 30 -160 32 -55 1 -111 -1 -125 -6z"/>
<path d="M34260 9803 c-277 -27 -426 -55 -614 -117 -699 -230 -1128 -780
-1250 -1601 -34 -227 -36 -340 -36 -2112 l0 -1773 625 0 625 0 3 1768 2 1767
23 84 c51 191 126 331 246 458 97 103 174 159 297 217 181 86 307 106 662 106
l237 0 0 605 0 605 -392 -2 c-216 0 -409 -3 -428 -5z"/>
<path d="M39320 9803 c-105 -8 -334 -45 -445 -72 -495 -121 -920 -364 -1296
-740 -447 -447 -706 -956 -800 -1571 -19 -123 -23 -188 -23 -425 -1 -306 7
-402 55 -637 106 -525 359 -988 759 -1389 85 -86 193 -186 240 -223 389 -307
851 -502 1350 -571 164 -22 498 -31 656 -16 320 30 680 122 981 251 125 54
215 106 326 189 l67 50 0 -219 0 -220 625 0 626 0 -4 1518 c-3 1673 -1 1605
-67 1932 -169 823 -672 1463 -1455 1850 -333 165 -610 245 -985 285 -121 13
-479 18 -610 8z m541 -1207 c343 -56 621 -197 859 -436 264 -263 414 -584 461
-985 18 -149 6 -401 -25 -551 -134 -641 -591 -1107 -1218 -1243 -424 -92 -885
-7 -1234 228 -355 238 -587 591 -676 1032 -20 100 -23 142 -23 344 1 201 4
243 23 334 72 328 205 589 411 803 279 292 609 449 1026 492 71 7 308 -3 396
-18z"/>
<path d="M43401 9780 c-200 -53 -355 -207 -417 -415 -25 -82 -25 -248 0 -329
57 -192 198 -343 377 -406 88 -31 259 -39 349 -16 213 53 373 208 436 421 12
41 18 94 18 165 0 171 -57 313 -170 426 -150 150 -379 210 -593 154z m272
-155 c81 -21 132 -50 194 -107 176 -167 186 -437 23 -612 -131 -139 -318 -183
-488 -114 -285 116 -370 477 -165 699 118 127 276 176 436 134z"/>
<path d="M43350 9200 l0 -330 80 0 80 0 0 90 c0 68 3 90 13 90 8 0 35 -40 61
-90 l47 -90 90 0 c82 0 89 1 80 18 -5 9 -32 57 -61 106 l-51 89 34 36 c46 48
68 93 74 155 11 104 -37 188 -132 232 -44 21 -65 24 -182 24 l-133 0 0 -330z
m240 175 c19 -10 33 -28 40 -53 20 -65 -14 -113 -88 -128 l-32 -6 0 101 0 101
25 0 c15 0 39 -7 55 -15z"/>
<path d="M6629 9137 c-182 -76 -281 -251 -249 -436 36 -206 211 -343 421 -328
98 6 170 38 242 106 200 190 152 516 -94 642 -57 29 -74 33 -164 36 -87 3
-107 1 -156 -20z"/>
<path d="M5815 8187 c-114 -38 -202 -112 -251 -212 -27 -55 -29 -69 -29 -170
0 -104 2 -114 32 -176 39 -80 111 -150 191 -187 51 -24 69 -27 167 -27 93 0
118 3 159 23 309 142 315 573 11 723 -54 26 -78 32 -152 35 -56 3 -102 -1
-128 -9z"/>
<path d="M7570 8099 c-203 -40 -347 -248 -311 -451 39 -222 243 -369 458 -329
136 25 237 103 296 229 28 60 32 76 32 162 0 86 -4 101 -32 162 -57 120 -163
204 -288 227 -67 12 -91 12 -155 0z"/>
<path d="M6779 7046 c-107 -29 -221 -131 -259 -232 -74 -200 4 -408 191 -506
61 -31 69 -33 174 -33 98 0 116 3 167 27 201 94 287 330 195 532 -79 171 -281
263 -468 212z"/>
<path d="M8093 6546 c-104 -34 -195 -114 -241 -214 -38 -81 -43 -221 -12 -305
101 -269 453 -344 655 -140 25 26 60 76 78 112 30 61 32 73 32 166 0 92 -3
106 -32 168 -39 82 -107 151 -189 191 -51 26 -72 30 -154 33 -61 2 -110 -2
-137 -11z"/>
<path d="M16390 1627 l0 -837 150 0 150 0 2 448 3 449 405 -449 c223 -247 413
-456 423 -465 16 -15 17 24 17 815 l0 832 -145 0 -145 0 0 -451 c0 -305 -3
-448 -10 -444 -8 5 -693 762 -842 930 -4 5 -8 -368 -8 -828z"/>
<path d="M22880 1628 l0 -838 150 0 150 0 2 450 3 449 415 -460 c228 -253 418
-463 422 -465 5 -3 8 369 8 825 l0 831 -145 0 -145 0 -2 -452 -3 -452 -410
454 c-225 250 -418 464 -427 475 -16 19 -17 -25 -18 -817z"/>
<path d="M27314 1626 l-372 -836 162 0 161 0 45 108 45 107 330 0 330 0 44
-108 45 -107 159 0 c147 0 159 1 154 18 -3 9 -163 373 -357 807 -193 435 -357
803 -363 818 -11 27 -34 -20 -383 -807z m480 -102 l105 -249 -211 -3 c-116 -1
-212 -1 -214 1 -2 2 30 83 71 181 41 98 89 211 106 252 17 41 33 73 35 71 2
-2 51 -116 108 -253z"/>
<path d="M36287 1632 c-202 -455 -367 -830 -367 -834 0 -5 71 -8 158 -8 l158
0 45 108 44 107 330 0 330 0 45 -107 45 -108 161 0 162 0 -370 833 c-204 457
-371 833 -372 834 0 1 -167 -371 -369 -825z m483 -118 c55 -131 98 -239 96
-241 -2 -2 -98 -2 -214 -1 l-211 3 106 253 c74 176 109 249 115 239 4 -9 53
-122 108 -253z"/>
<path d="M41357 1632 c-202 -455 -367 -830 -367 -834 0 -5 71 -8 159 -8 l158
0 45 108 44 107 330 3 329 2 45 -110 45 -110 163 0 c90 0 161 3 159 8 -3 4
-168 374 -367 822 -199 448 -365 820 -369 827 -3 6 -171 -360 -374 -815z m480
-108 c56 -136 101 -249 99 -251 -1 -2 -98 -2 -213 -1 l-211 3 106 252 c58 139
108 250 110 248 3 -3 52 -116 109 -251z"/>
<path d="M13335 2429 c-337 -49 -619 -295 -707 -618 -30 -110 -30 -307 0 -413
85 -299 298 -511 604 -599 101 -29 315 -37 414 -16 136 29 347 133 326 161 -5
6 -41 57 -80 113 l-72 102 -56 -34 c-98 -59 -144 -70 -289 -70 -118 1 -137 4
-205 29 -245 93 -382 298 -367 551 15 258 184 451 444 509 142 32 257 17 390
-49 l84 -43 23 32 c13 17 49 66 80 110 l56 78 -23 18 c-41 33 -151 88 -217
109 -125 39 -266 50 -405 30z"/>
<path d="M14965 2425 c-552 -103 -848 -719 -584 -1214 104 -195 263 -328 479
-403 92 -31 101 -33 255 -33 140 0 169 3 235 23 369 117 602 427 601 806 0
136 -20 232 -72 344 -164 355 -534 548 -914 477z m274 -280 c250 -59 440 -322
417 -579 -8 -86 -46 -202 -90 -269 -72 -113 -205 -207 -335 -237 -74 -17 -221
-8 -289 18 -309 119 -448 479 -300 780 43 88 151 198 236 241 117 59 239 74
361 46z"/>
<path d="M19675 2431 c-205 -34 -373 -120 -506 -258 -157 -162 -229 -341 -229
-568 0 -208 53 -358 185 -526 93 -118 292 -241 460 -285 98 -26 352 -26 445
-1 75 21 212 85 254 120 l28 23 -79 111 -80 112 -44 -30 c-73 -49 -185 -79
-292 -79 -172 0 -315 57 -428 171 -106 106 -154 228 -153 389 1 242 142 434
379 516 69 24 96 28 195 28 128 0 200 -18 294 -76 27 -16 52 -26 56 -21 4 4
40 55 80 112 l73 104 -24 19 c-43 34 -203 107 -269 123 -76 19 -273 27 -345
16z"/>
<path d="M25183 2425 c-146 -26 -292 -93 -409 -186 -203 -161 -320 -429 -300
-688 9 -123 30 -203 82 -307 106 -215 305 -377 549 -446 106 -30 353 -33 455
-5 67 18 229 93 267 124 l21 18 -79 112 -79 111 -56 -33 c-97 -58 -144 -70
-284 -70 -146 0 -232 22 -328 85 -158 103 -238 242 -249 430 -18 322 208 566
542 587 110 7 187 -10 298 -66 l77 -39 76 106 c56 77 74 110 67 120 -16 26
-130 88 -210 115 -146 48 -293 59 -440 32z"/>
<path d="M34983 2426 c-340 -65 -595 -289 -685 -603 -19 -64 -23 -103 -23
-218 0 -158 14 -223 69 -342 108 -228 290 -382 543 -460 79 -24 104 -27 248
-27 185 -1 262 16 396 85 126 65 124 59 34 187 l-77 110 -47 -29 c-80 -50
-157 -72 -266 -77 -287 -12 -524 151 -589 404 -32 126 -16 285 41 404 40 83
153 192 245 235 188 89 401 84 561 -15 27 -17 50 -30 52 -30 5 0 146 200 152
216 9 25 -147 110 -268 144 -96 27 -285 35 -386 16z"/>
<path d="M20710 1605 l0 -815 150 0 150 0 0 815 0 815 -150 0 -150 0 0 -815z"/>
<path d="M21540 1605 l0 -815 425 0 425 0 0 135 0 135 -277 2 -278 3 -3 153
-3 152 206 0 205 0 0 140 0 140 -205 0 -205 0 0 245 0 245 280 0 280 0 0 140
0 140 -425 0 -425 0 0 -815z"/>
<path d="M26240 1605 l0 -815 150 0 150 0 0 815 0 815 -150 0 -150 0 0 -815z"/>
<path d="M29750 1605 l0 -815 425 0 425 0 0 135 0 135 -277 2 -278 3 -3 153
-3 152 206 0 205 0 0 140 0 140 -205 0 -205 0 0 245 0 245 280 0 280 0 0 140
0 140 -425 0 -425 0 0 -815z"/>
<path d="M31090 1606 l0 -816 243 0 c284 0 374 14 508 77 300 142 455 423 436
792 -7 143 -26 220 -82 336 -78 160 -175 258 -330 335 -146 73 -204 83 -507
88 l-268 4 0 -816z m509 523 c171 -39 317 -192 366 -384 22 -87 20 -218 -6
-301 -32 -102 -62 -156 -130 -229 -98 -104 -223 -154 -391 -155 l-48 0 0 540
0 540 83 0 c45 0 102 -5 126 -11z"/>
<path d="M32720 1861 c0 -632 2 -658 70 -799 90 -188 262 -292 483 -292 222 0
394 104 487 293 68 141 70 164 70 797 l0 560 -145 0 -145 0 0 -512 c0 -282 -5
-546 -10 -586 -23 -175 -114 -271 -255 -272 -81 0 -153 34 -195 91 -60 83 -60
87 -60 711 l0 568 -150 0 -150 0 0 -559z"/>
<path d="M37520 2280 l0 -140 165 0 165 0 0 -675 0 -675 150 0 150 0 0 675 0
675 170 0 170 0 0 140 0 140 -485 0 -485 0 0 -140z"/>
<path d="M38940 1605 l0 -815 150 0 150 0 0 815 0 815 -150 0 -150 0 0 -815z"/>
<path d="M39606 2363 c283 -641 717 -1613 719 -1611 2 2 169 378 373 836 l370
832 -170 -2 -170 -3 -194 -460 c-106 -253 -197 -468 -202 -479 -6 -13 -60 105
-211 463 l-204 481 -168 0 -169 0 26 -57z"/>
</g>
</svg>
