<svg id="Layer_1" data-name="Layer 1" xmlns="http://www.w3.org/2000/svg" viewBox="0 0 512 512"><path d="M31,455.57c.41-1.82.84-3.63,1.22-5.46Q38.3,421,64.46,407c.77-.41,1.51-.87,2.25-1.33.1-.07.13-.26.2-.39-15-21.13-14-40.84,2.57-54.52a36.42,36.42,0,0,1,48.76,2.71c12.46,12.74,15.39,34.72-.69,51.65,3.9,2.51,7.93,4.76,11.56,7.54s7,6.13,10.78,9.53V317.79c-13.92-2.4-18.07-7.41-18.07-21.71,0-1.61,0-3.22,0-4.83.3-10.68,7.14-17.44,17.86-17.49,13.33-.06,26.66,0,40,0h5.42V248.38H104.34c-16.56,0-25.89-9.31-25.89-25.81q0-82.84,0-165.7c0-16.47,9.42-25.93,25.82-25.93q152.3,0,304.59,0c16.13,0,25.69,9.54,25.69,25.64q0,83.07,0,166.14c0,16.23-9.39,25.64-25.62,25.65q-38,0-76,0h-5.11v25.36H333c13.18,0,26.37,0,39.56,0,11.77,0,18.45,6.71,18.58,18.55,0,1.61,0,3.22,0,4.83,0,13.45-5.26,19.2-19.3,20.54,0,3.23,0,6.54,0,9.85,0,5.89-2.33,9.1-6.53,9.2s-6.6-3.11-6.64-9c0-3.21,0-6.41,0-10h-205V421.65l22-16.91c-17.79-19.86-10.17-42.83,2-53.26a36.57,36.57,0,0,1,49.16,1.4c12.09,11.71,16.89,34-.29,52.49,12.57,6.19,22.5,15.14,29.46,28.22,7.11-12.7,16.66-22,29.79-28.17-8.89-9.22-12.82-19.87-11-32.22a35,35,0,0,1,12.8-22.36,36.27,36.27,0,0,1,47.8,1.56c14.87,14,15.12,33.06,1,52.31l22.26,17.13v-3.93c0-17.88,0-70.35,0-88.22a27.85,27.85,0,0,1,.16-4.39,6,6,0,0,1,5.95-5.42,5.89,5.89,0,0,1,6.57,4.63,20.12,20.12,0,0,1,.48,5.21c0,17.58,0,69.76,0,87.34v4.61l22.2-16.95c-14.56-19.49-14-39.32,1.79-53.11A36.33,36.33,0,0,1,445,352.78c12.37,11.86,16.81,34.27,0,52.4.95.63,1.81,1.28,2.74,1.8,23.3,13,33.9,33,33.24,59.39-.19,7.53-4.82,11.86-11.27,14.7H42.43A18.63,18.63,0,0,1,31,468.76ZM315.31,221.94c3.18,4.41,4.23,7.53,6.25,10.55.86,1.29,2.77,2.67,4.21,2.68q42.19.22,84.39.05c7.49,0,11.19-4.07,11.2-11.64q0-83.94,0-167.9c0-7.61-4-11.55-11.74-11.55q-153.18,0-306.35,0c-7.65,0-11.61,4-11.62,11.68q0,83.94,0,167.89c0,7.54,3.72,11.5,11.3,11.53,28.13.11,56.26.06,84.39,0,1.16,0,2.89-.44,3.38-1.25,2.19-3.68,1.43-3.06,6.25-11.88s20.79-19.39,20.79-19.39c4.06-2.34,7.59-4.47,11.56-6.7-22-18.69-21-47.12-6-64.09a44,44,0,0,1,61.3-4.89,42.77,42.77,0,0,1,15.77,30.33c1.25,15.72-4.89,28.4-16.45,38.44,5.7,3.6,13,7.49,16.57,10.36A114.23,114.23,0,0,1,315.31,221.94Zm-.58,51.63c2.15-26.37-5.83-47.85-29-61.27-21.33-12.37-43.09-11.2-63.24,3-19.94,14.09-26.38,34.4-24.16,58.23ZM256.56,304.2h112c9.41,0,9.41,0,9.4-9.48,0-7.53-.27-7.79-8-7.79H145.06c-10.08,0-10.08,0-10.06,10.13,0,6.6.56,7.13,7.34,7.13ZM372.37,467.53a4.55,4.55,0,0,0,1.18.31q45.43,0,90.89.08c2.85,0,3.32-1.37,3.42-3.79a48.32,48.32,0,0,0-57.64-49.82C386,418.87,368.36,443.64,372.37,467.53Zm-232,.15c-.25-4.87,0-9.57-.82-14.09-4.34-25.14-26.81-42.47-51.65-40.08-25.12,2.41-43.52,23.29-43.72,49.28,0,4.08,1.17,5.2,5.22,5.18,28.83-.17,57.66-.09,86.49-.1C137.22,467.87,138.5,467.76,140.41,467.68Zm108.92-.05c1.11-20.66-5.84-37.07-23.6-47.51-17-10-34.55-9.39-50.95,1.53-16.13,10.75-22.3,26.66-21.18,46Zm109.2,0c1.1-19.47-5.26-35.25-21.45-46.28a47.09,47.09,0,0,0-53.26.26c-15.92,11.05-22.28,26.69-20.95,46ZM256.46,191c18,0,31.17-12.84,31-30.14a31,31,0,0,0-62,.37C225.65,178.47,238.71,191,256.46,191ZM419.69,400.19l.31,1.13c4.35-1.2,9.27-1.47,12.92-3.77,9.7-6.11,12.64-18.95,7.51-29.09a23.15,23.15,0,0,0-43.54,13.93C398.74,394,406.73,400.19,419.69,400.19Zm-327.3.86c4-.86,8.54-.82,12-2.74,10-5.58,13.73-18.09,9.2-28.57a23.06,23.06,0,0,0-44,12.57C71.13,393.82,79.23,400.21,92.39,401.05Zm218.4-.05c3.89-.79,8.26-.72,11.6-2.53,10.22-5.54,14-18.22,9.39-28.86a23.11,23.11,0,0,0-44,12.85C289.41,393.78,297.66,400.19,310.79,401Zm-109.36,0c4-.84,8.56-.77,12-2.67,10.18-5.62,13.88-18.38,9.15-28.95a23.18,23.18,0,0,0-27.35-12.8c-11.32,3.21-18.25,14.13-16.52,26.05C180.32,393.8,188.58,400.22,201.43,401Z"/></svg>