<?xml version="1.0" standalone="no"?>
<!DOCTYPE svg PUBLIC "-//W3C//DTD SVG 20010904//EN"
 "http://www.w3.org/TR/2001/REC-SVG-20010904/DTD/svg10.dtd">
<svg version="1.0" xmlns="http://www.w3.org/2000/svg"
 width="4500.000000pt" height="1121.000000pt" viewBox="0 0 4500.000000 1121.000000"
 preserveAspectRatio="xMidYMid meet">

<g transform="translate(0.000000,1121.000000) scale(0.100000,-0.100000)"
fill="#000000" stroke="none">
<path d="M4240 5692 l0 -5342 765 0 765 0 2 1647 3 1647 1130 -1647 1130
-1647 907 0 c500 0 908 2 908 5 0 2 -554 801 -1231 1775 -677 974 -1229 1776
-1226 1783 3 7 507 740 1121 1630 614 890 1116 1620 1116 1623 0 2 -408 3
-906 2 l-906 -3 -1022 -1475 -1021 -1474 -3 2540 -2 2540 -741 844 c-407 465
-751 856 -765 870 l-24 25 0 -5343z"/>
<path d="M12420 7100 c0 -2524 4 -3986 10 -4095 50 -835 277 -1445 710 -1908
299 -319 743 -557 1250 -671 384 -85 598 -96 1688 -88 l803 7 -693 790 -694
790 -204 6 c-312 10 -495 49 -668 145 -286 157 -447 415 -524 839 -22 119 -22
132 -26 1447 l-3 1328 1257 2 1257 3 -647 738 -647 737 -610 0 -609 0 0 988 0
988 -811 924 c-446 509 -817 932 -825 940 -12 12 -14 -529 -14 -3910z"/>
<path d="M23918 8768 l-3 -2195 -123 92 c-475 357 -1344 564 -2113 505 -481
-38 -884 -146 -1279 -345 -361 -181 -629 -385 -967 -738 -428 -446 -721 -998
-843 -1587 -80 -388 -97 -858 -45 -1257 98 -748 429 -1409 984 -1963 619 -618
1383 -951 2264 -989 962 -41 1787 230 2504 824 683 566 1061 1343 1133 2330 6
90 10 1152 10 2965 l-1 2825 -750 855 c-413 470 -755 859 -760 864 -5 6 -10
-841 -11 -2186z m-1698 -3059 c332 -37 681 -176 943 -376 34 -26 111 -95 171
-153 319 -309 511 -707 572 -1182 20 -160 15 -468 -11 -618 -62 -364 -204
-688 -415 -945 -72 -88 -235 -246 -317 -308 -437 -332 -1039 -461 -1598 -343
-399 85 -761 293 -1027 591 -418 467 -593 1142 -462 1785 206 1022 1096 1665
2144 1549z"/>
<path d="M30566 7159 c-1222 -87 -2001 -756 -2230 -1915 -76 -385 -76 -377
-76 -2766 l0 -2128 760 0 760 0 0 2088 c0 1804 2 2101 15 2187 44 293 170 544
368 732 132 125 271 208 450 268 169 57 249 65 625 65 l332 0 0 740 0 740
-447 -1 c-247 -1 -497 -5 -557 -10z"/>
<path d="M36790 7163 c-19 -1 -84 -8 -145 -13 -970 -92 -1847 -615 -2442
-1455 -185 -261 -356 -603 -447 -892 -59 -188 -110 -435 -138 -658 -20 -171
-17 -703 5 -880 53 -408 145 -721 317 -1070 179 -365 397 -664 701 -962 521
-511 1171 -823 1911 -918 550 -70 1109 -12 1667 175 291 97 473 184 651 310
l125 89 3 -264 2 -265 760 0 760 0 0 1678 c0 976 -4 1760 -10 1875 -36 712
-213 1285 -551 1788 -215 321 -550 645 -914 885 -513 339 -1055 524 -1679 574
-118 9 -491 12 -576 3z m450 -1454 c874 -80 1543 -682 1714 -1542 205 -1026
-314 -1998 -1236 -2316 -802 -276 -1681 -29 -2183 614 -218 279 -356 619 -406
1000 -17 132 -14 428 5 560 97 645 452 1166 996 1463 180 98 463 188 660 211
52 6 109 13 125 15 66 7 216 5 325 -5z"/>
<path d="M41745 7146 c-155 -31 -272 -92 -381 -201 -66 -66 -89 -98 -127 -175
-65 -132 -81 -200 -81 -345 1 -137 16 -210 69 -320 92 -193 274 -342 480 -391
92 -22 267 -22 360 0 150 35 310 139 399 257 105 139 149 276 148 459 0 184
-48 324 -157 462 -84 107 -240 207 -380 243 -86 22 -245 27 -330 11z m319
-215 c365 -130 474 -597 204 -877 -211 -220 -561 -217 -772 6 -279 297 -142
776 254 885 77 21 236 14 314 -14z"/>
<path d="M41620 6426 l0 -406 100 0 100 0 0 111 c0 100 2 110 18 107 10 -2 39
-44 72 -108 l55 -105 108 -3 c59 -1 107 0 107 4 0 4 -31 62 -70 129 -38 67
-70 126 -70 131 0 5 15 21 34 36 46 37 86 122 93 196 11 123 -52 235 -159 283
-48 21 -70 24 -220 27 l-168 4 0 -406z m304 209 c66 -44 58 -163 -14 -200 -16
-8 -43 -15 -60 -15 l-30 0 0 121 0 122 41 -7 c22 -4 51 -13 63 -21z"/>
</g>
</svg>
