<?xml version="1.0" standalone="no"?>
<!DOCTYPE svg PUBLIC "-//W3C//DTD SVG 20010904//EN"
 "http://www.w3.org/TR/2001/REC-SVG-20010904/DTD/svg10.dtd">
<svg version="1.0" xmlns="http://www.w3.org/2000/svg"
 width="3171.000000pt" height="3302.000000pt" viewBox="0 0 3171.000000 3302.000000"
 preserveAspectRatio="xMidYMid meet">

<g transform="translate(0.000000,3302.000000) scale(0.100000,-0.100000)"
fill="#000000" stroke="none">
<path d="M14370 32280 c-1608 -73 -3082 -373 -4500 -918 -629 -242 -1336 -585
-1905 -925 -2784 -1663 -4541 -4234 -4860 -7112 -46 -415 -50 -508 -50 -1035
1 -540 -1 -503 75 -1505 76 -1002 92 -1344 78 -1730 -31 -938 -353 -1804 -985
-2652 -183 -246 -359 -455 -713 -848 -429 -476 -568 -653 -663 -840 -62 -125
-79 -187 -84 -327 -15 -345 77 -602 296 -831 109 -114 200 -184 516 -397 424
-285 548 -383 745 -586 582 -603 827 -1382 995 -3164 74 -790 96 -987 141
-1280 139 -902 415 -1444 903 -1772 512 -343 1186 -440 2341 -337 124 11 394
38 600 59 998 104 1335 126 1830 117 415 -7 667 -35 955 -106 464 -114 807
-330 1004 -631 370 -568 763 -1909 1111 -3797 33 -177 69 -346 80 -376 64
-172 214 -315 400 -381 l85 -31 5428 -3 c4769 -2 5437 0 5500 13 184 38 362
176 446 345 74 152 90 306 47 466 -13 49 -64 231 -114 404 -344 1192 -612
2420 -812 3715 -12 77 -35 181 -51 230 -126 394 -458 692 -866 774 -95 20
-135 21 -690 21 -623 0 -722 5 -872 45 -309 82 -588 313 -726 599 -106 220
-116 285 -125 811 -6 392 -9 437 -28 507 -123 450 -462 767 -913 853 -63 12
-156 15 -418 15 -185 0 -379 5 -431 10 -186 20 -362 82 -519 184 -86 55 -225
186 -292 276 -69 91 -154 267 -184 380 -37 141 -45 249 -45 620 0 184 -5 363
-10 397 -67 410 -356 760 -744 898 -172 62 -217 67 -691 75 -390 6 -437 9
-505 27 -214 59 -366 143 -515 285 -181 173 -287 362 -341 608 -17 75 -19 132
-19 480 0 429 4 473 56 634 75 229 242 452 439 586 93 63 256 137 367 167 96
26 106 26 538 33 391 7 450 10 525 28 237 56 425 165 592 341 134 142 225 307
280 508 19 72 22 112 28 523 6 358 11 461 24 528 75 370 330 688 667 833 198
86 293 98 745 99 265 0 372 4 437 15 478 83 842 434 944 909 11 53 17 178 22
501 8 421 8 432 34 528 30 111 104 274 167 367 131 193 353 361 574 435 158
53 192 56 656 65 397 7 442 9 518 29 469 120 813 507 871 976 17 136 14 728
-3 845 -65 429 -351 775 -763 923 -147 53 -206 59 -668 67 -387 7 -437 10
-505 28 -234 63 -394 156 -556 324 -127 131 -214 277 -268 448 -48 149 -56
243 -56 621 0 263 -4 368 -15 435 -84 492 -472 875 -962 949 -72 11 -190 15
-445 15 -192 0 -381 5 -424 11 -425 59 -794 362 -928 761 -55 164 -58 189 -63
577 -5 385 1 486 38 626 115 442 498 781 953 844 43 6 230 11 416 11 345 0
436 6 572 41 243 61 491 232 637 439 206 292 268 636 176 979 -91 338 -352
630 -680 762 -133 53 -647 178 -1105 268 -722 142 -1434 230 -2240 277 -308
18 -1226 26 -1500 14z m-3830 -5658 c259 -67 452 -172 638 -347 207 -195 361
-475 419 -762 13 -64 18 -135 18 -263 0 -258 -39 -421 -153 -645 -197 -386
-549 -650 -997 -747 -95 -20 -430 -17 -535 5 -505 108 -904 464 -1065 951 -92
277 -92 595 0 872 132 400 423 713 813 873 187 77 327 101 562 97 166 -3 197
-7 300 -34z m5615 -1071 c563 -124 978 -542 1101 -1111 26 -120 27 -419 1
-540 -61 -282 -178 -506 -367 -703 -125 -131 -237 -214 -395 -292 -209 -104
-395 -147 -625 -147 -162 0 -295 20 -438 68 -504 166 -866 587 -957 1113 -20
111 -19 342 1 462 19 112 79 300 127 396 93 184 279 403 437 515 187 133 391
216 617 253 122 20 377 13 498 -14z m-2140 -3820 c584 -113 1035 -578 1130
-1166 31 -188 15 -428 -40 -620 -30 -105 -116 -289 -179 -383 -208 -314 -541
-533 -922 -608 -123 -25 -385 -25 -508 0 -249 49 -464 152 -659 314 -250 208
-428 525 -482 857 -19 115 -19 325 0 440 73 450 367 849 770 1046 155 75 314
120 505 143 73 9 289 -4 385 -23z m745 -12756 c571 -124 985 -536 1112 -1106
30 -136 32 -405 5 -542 -87 -430 -357 -794 -737 -991 -209 -109 -417 -159
-655 -159 -164 0 -280 18 -434 68 -215 70 -397 182 -561 345 -209 209 -343
468 -395 760 -22 124 -23 345 -2 465 52 291 175 538 370 741 224 235 493 377
813 429 113 18 378 13 484 -10z"/>
<path d="M21445 29654 c-350 -53 -611 -180 -840 -409 -192 -192 -319 -420
-382 -685 -33 -141 -42 -380 -19 -525 45 -292 173 -555 373 -765 299 -315 705
-471 1141 -439 406 30 779 237 1032 574 34 44 90 139 125 210 104 210 145 387
145 631 0 171 -19 290 -70 445 -46 139 -88 224 -169 347 -195 291 -509 506
-858 588 -88 21 -140 26 -278 29 -93 2 -183 1 -200 -1z"/>
<path d="M24975 27614 c-325 -49 -600 -183 -820 -399 -343 -338 -491 -824
-395 -1296 95 -464 425 -858 865 -1032 166 -66 278 -88 475 -94 264 -8 440 28
656 131 299 144 527 368 669 661 341 700 48 1551 -650 1890 -215 105 -342 135
-590 140 -99 2 -193 1 -210 -1z"/>
<path d="M29081 24849 c-455 -59 -878 -356 -1082 -760 -169 -335 -200 -724
-87 -1079 127 -396 428 -723 810 -879 520 -213 1112 -102 1516 283 212 203
352 451 413 736 31 140 33 429 6 560 -90 423 -331 756 -703 969 -251 145 -579
208 -873 170z"/>
<path d="M25220 21484 c-504 -44 -941 -338 -1160 -779 -64 -130 -97 -223 -126
-356 -26 -119 -27 -438 -1 -559 106 -497 450 -893 918 -1058 169 -60 275 -77
474 -77 199 0 305 17 474 77 407 144 734 476 871 886 54 163 65 239 65 452 0
213 -10 284 -67 455 -158 476 -596 854 -1090 939 -89 15 -284 26 -358 20z"/>
<path d="M21710 18755 c-446 -71 -842 -361 -1047 -768 -50 -100 -109 -285
-129 -405 -22 -137 -15 -407 14 -532 115 -493 475 -891 945 -1044 157 -51 227
-61 442 -61 214 0 286 10 444 62 433 141 789 510 916 948 74 256 74 543 1 795
-153 529 -602 923 -1146 1005 -116 18 -326 18 -440 0z"/>
<path d="M18790 15333 c-506 -50 -939 -349 -1155 -798 -109 -228 -156 -484
-135 -732 30 -346 166 -640 410 -883 202 -203 437 -330 723 -392 146 -31 418
-31 564 0 502 108 904 464 1063 940 47 143 61 226 67 402 9 262 -29 445 -136
665 -123 251 -282 429 -521 584 -247 160 -589 243 -880 214z"/>
<path d="M24835 14984 c-320 -54 -635 -232 -839 -474 -228 -271 -340 -575
-339 -925 0 -246 48 -441 159 -655 134 -259 363 -483 628 -617 102 -52 287
-109 411 -129 142 -22 388 -15 516 15 490 112 876 453 1038 914 58 165 75 272
75 472 1 201 -11 277 -69 452 -165 494 -591 860 -1104 947 -115 20 -362 20
-476 0z"/>
<path d="M22115 11254 c-579 -104 -1029 -539 -1152 -1114 -25 -120 -26 -449 0
-567 61 -282 187 -514 391 -719 274 -273 613 -414 1001 -414 666 0 1228 448
1383 1103 24 101 26 132 27 307 0 214 -11 287 -66 455 -116 348 -382 655 -712
822 -96 48 -284 108 -396 127 -118 20 -365 20 -476 0z"/>
<path d="M26920 9494 c-19 -3 -79 -14 -134 -25 -557 -116 -982 -543 -1103
-1109 -26 -121 -25 -440 1 -559 126 -578 574 -1014 1146 -1117 127 -23 363
-23 490 0 567 102 1021 540 1145 1106 22 101 31 374 16 482 -67 469 -353 868
-774 1079 -93 47 -250 101 -362 124 -77 16 -348 28 -425 19z"/>
</g>
</svg>
