<svg id="Layer_1" data-name="Layer 1" xmlns="http://www.w3.org/2000/svg" viewBox="0 0 512 512"><path d="M252.47,466c-49.37,0-97.92,0-145.31,0-19,0-32.92-14-33-33.35,0-2.53,0-5.06,0-7.82v-2.24c-1.29,0-2.56.08-3.8.12a63.42,63.42,0,0,1-12.13-.3C41.93,419.88,31,406.18,31,388.29q0-143,0-286V81.91C31,59.43,44.44,46,67,46H310.41c14.23,0,28.94,0,43.41,0,19.82.09,33.77,14,33.91,33.83,0,2.45,0,4.9,0,7.52v1.74c14.35-1,29.72.65,38.8,16.36l2.39-.63a47.37,47.37,0,0,1,8.25-1.68c16.6-1.39,32.69,8.14,40,23.73,7.12,15.11,4.14,30.51-8.38,43.36-4.11,4.22-8.36,8.39-12.47,12.42l-4.63,4.57c3.19,8.25,2.32,11.5-4.2,18q-1.95,2-3.89,3.94c-3.31,3.36-6.73,6.85-10.28,10.1-1.89,1.73-2.59,3.53-2.58,6.63.07,62.94.08,130.42,0,206.32,0,19.52-13.95,33.7-33.15,33.72C348.73,466,300.21,466,252.47,466ZM151.55,102.82H109.46c-14.33,0-21.6,7.35-21.6,21.82v306c0,14.32,7.34,21.59,21.8,21.59H395.37c14.4,0,21.69-7.31,21.69-21.71q0-72.47,0-144.92v-55l-5-1.49-41.56,41.56c3.47,0,7,0,10.68,0,3,0,5.14.63,6.56,2a7.49,7.49,0,0,1,.05,9.75c-1.87,1.85-4.67,2-6.59,2l-3.62,0c-6.45-.07-13.12-.14-19.64.15a9.24,9.24,0,0,0-5.5,2.29c-12,11.75-24.05,23.84-35.71,35.53L308.14,331l-.22.24h71.24c.36,0,.75,0,1.14-.06a6.77,6.77,0,0,1,4.24.59c1.74,1.08,4.69,3.29,4.83,5.9s-2.53,5.39-4.13,6.55c-1.4,1-3.2.93-4.78.84-.38,0-.75,0-1.1,0H358.24c-20,0-40.59,0-60.88.14a8.86,8.86,0,0,0-5.45,2.24c-12.15,11.91-24.38,24.16-36.2,36l-8.13,8.15,0,0H379.9a19.14,19.14,0,0,1,3.68.16,7.41,7.41,0,0,1,5.18,3,5.49,5.49,0,0,1,.64,4.5c-.73,2.73-3.64,4.73-5.31,5.68a7.52,7.52,0,0,1-4.46.55c-.44,0-.88-.08-1.29-.08H343.91c-38.28,0-77.87,0-116.8.1a45.48,45.48,0,0,0-12.77,2c-7.38,2.24-14.85,4.65-22.07,7-6.49,2.1-13.21,4.27-19.85,6.31-2.25.69-6.28.62-8-1.31-2-2.24-1.76-6.26-1.56-7.88a28.42,28.42,0,0,1,1.61-6,2.09,2.09,0,0,0,.08-.23H138.32c-5.27,0-10.73,0-16.1-.06-4.06-.05-6.71-2.49-6.93-6.37s2.2-6.77,6.47-7.33a18.62,18.62,0,0,1,2.87-.09h10.58c10.41,0,21.17,0,31.75-.12a4.47,4.47,0,0,0,2.45-1c4.31-12.72,8.34-25.23,12.62-38.46l2.25-7h-8.59c-16.88,0-33.58,0-50.28,0h0c-.34,0-.7,0-1.07.06-1.49.1-3.18.21-4.46-.83-1.58-1.28-4.23-3.83-4.32-6.59-.07-2.44,2.69-4.57,5-5.94a6.9,6.9,0,0,1,4.19-.55c1.29.11,2.47.07,3.69.07h13.76c16.91,0,34.39,0,51.58-.15a9.53,9.53,0,0,0,5.86-2.39c11.83-11.57,23.71-23.48,35.2-35l8.83-8.85.43-.44H125.69c-.37,0-.77,0-1.17.07a6.55,6.55,0,0,1-4.22-.57c-1.85-1.18-4.92-3.54-4.77-6.17s2.9-5.22,4.53-6.45c1.29-1,2.91-.83,4.35-.71.4,0,.79.07,1.15.07h24.7c34.25,0,69.66,0,104.48-.1a7.82,7.82,0,0,0,4.79-1.69c13-12.77,26.09-25.89,38.74-38.59l6.27-6.28H126c-1,0-2,0-3,0-6.5-.21-7.58-4.27-7.64-6.67-.13-4.4,2.66-7,7.64-7.23.88,0,1.75,0,2.62,0H237.93c25.34,0,51.55,0,77.32-.08a7.3,7.3,0,0,0,4.52-1.36c11.71-11.42,23.05-22.86,34.6-34.55a2.66,2.66,0,0,0,.62-1.65c-.26-2.42-.7-4.84-1.16-7.41-.09-.49-.18-1-.27-1.51H125.1a24.07,24.07,0,0,1-3.58-.12c-4-.55-6.35-3.17-6.24-7s2.6-6.44,6.67-6.61c1.19,0,2.39,0,3.55,0h236c4.58,0,7.5-1.61,9.74-5.39,6.65-11.21,14.46-15.23,24.51-12.6l19-18.93c-3.75-6.6-9.76-10-17.91-10q-53.57,0-107.13,0c-.66,0-1.35.07-2.22.15l-1.64.13h-.15L219.14,103l-1.86-.09c-1.07-.06-2-.11-2.88-.11ZM119.5,337.71Zm0-59.89Zm2.88-3.32ZM140.45,59.85c-25.43,0-51.11,0-76.51.09-8.82,0-15.74,5-18.07,13a30.73,30.73,0,0,0-1,8.57c0,88.15,0,182.49,0,305.89a34.72,34.72,0,0,0,.51,6.63c1,5.21,4,11.86,12.43,14a59.12,59.12,0,0,0,12.39,1.26c1.29,0,2.61.08,3.94.15V326q0-101,0-201.95c0-21.21,13.76-34.92,35.05-34.93L374,88.89v-7c0-14.78-7.13-22-21.79-22q-21.56,0-43.13,0l-92.17,0H140.45ZM183,394l-3.23,10.07L189.2,401Zm4.6-14.07a2.12,2.12,0,0,0,.42,1c4.14,4,8.35,7.86,12.82,12l3.45,3.2,18-5.88c-.09-.45-.18-.89-.28-1.33-.54-2.58-1.05-5-1.63-7.42a4.65,4.65,0,0,0-.41-1,26,26,0,0,1-16.73-16.58l-9.73-2.43c-.32,1-.64,2-1,2.95C190.88,369.53,189.16,374.77,187.58,380Zm32.31.42Zm-32.31-.46Zm209-164.8-.37.35Q316.11,295.58,236,375.71c-2.26,2.26-2.69,4.91-1.3,7.48L399.35,218.55ZM216.63,359c.2,3.34,2.37,5.44,5.57,7.54,1.78,1.17,2.63.91,5-1.51,41.84-41.91,84.42-84.49,125.6-125.67l32.05-32.06c.64-.64,1.26-1.3,1.9-2l-8.38-8.23Q298.05,277.4,217.68,357.81A7.91,7.91,0,0,0,216.63,359Zm-16.32-10.09c2.73,1.65,5.63,1.12,8.34-1.58Q288,268,367.28,188.65c.38-.38.75-.79,1.1-1.18L365.3,184ZM369,165.86l48.86,49.25,4.48-4.57L373.7,161.81Zm15.73-16,48.8,48.94,4.82-4.52-49-49.15Zm22.83-8.23,34.51,34.49c1.62-1.53,3.27-3,4.93-4.59,5-4.61,10.11-9.37,14.85-14.4,4.52-4.79,6.19-11.14,4.82-18.37-1.76-9.3-9.14-17.68-18.37-20.86a21.57,21.57,0,0,0-22,4.37,186.09,186.09,0,0,0-14,14.24C410.73,138.24,409.14,140,407.55,141.67Z"/></svg>