<?xml version="1.0" encoding="UTF-8"?>
<svg id="Layer_1" data-name="Layer 1" xmlns="http://www.w3.org/2000/svg" viewBox="0 0 100 100">
  <defs>
    <style>
      .cls-1 {
        fill: #e6e6e6;
      }
    </style>
  </defs>
  <path d="M53.78,98.84c-26.9,0-48.78-21.91-48.78-48.84S26.88,1.16,53.78,1.16V3.72C28.3,3.72,7.56,24.48,7.56,50s20.73,46.28,46.22,46.28v2.56Z"/>
  <path class="cls-1" d="M54.09,90.91c22.59,0,40.91-18.31,40.91-40.91S76.69,9.09,54.09,9.09,13.18,27.41,13.18,50s18.31,40.91,40.91,40.91"/>
  <path d="M61.62,24.53h-15.95c-.44,3.13,1.48,4.87,3.88,4.8,2.77-.08,5.55-.02,8.32-.02,2.63,0,4.2-2,3.75-4.78m-18.27-.03h-8.91c-1.02,0-1.42,.43-1.42,1.51v47.41c0,1.12,.39,1.53,1.45,1.53h38.36c1.06,0,1.45-.42,1.45-1.53V26c0-1.08-.4-1.51-1.42-1.51h-8.91v2.39h.54c1.63,0,3.26,0,4.89,0,1.06,0,1.47,.43,1.47,1.53v42.62c0,1.07-.42,1.51-1.43,1.51-10.51,0-21.03,0-31.54,0-1.01,0-1.43-.44-1.43-1.51V28.41c0-1.1,.41-1.52,1.47-1.52,1.65,0,3.3,0,4.94,0,.18,0,.37-.02,.49-.02v-2.37Zm-4.58,4.82v40.8h29.75V29.31c-1.76,0-3.47,.01-5.19-.01-.37,0-.62,.1-.87,.4-1.1,1.3-2.51,1.98-4.17,1.99-3.1,.03-6.19,.02-9.29,0-1.44,0-2.77-.48-3.73-1.58-.63-.71-1.28-.84-2.12-.82-1.45,.04-2.9,.01-4.38,.01m-8.04,20.41c0-7.94,0-15.88,0-23.81,0-1.91,1.01-3.32,2.67-3.72,.33-.08,.67-.09,1.01-.09,12.82,0,25.64,0,38.46,0,2.28,0,3.68,1.47,3.69,3.86v47.52c0,2.39-1.4,3.86-3.68,3.87-12.82,0-25.64,0-38.46,0-2.28,0-3.68-1.48-3.69-3.86,0-7.92,0-15.84,0-23.76"/>
  <path d="M46.73,40.86c1.23-1.3,2.37-2.49,3.51-3.68,.15-.16,.3-.32,.48-.45,.45-.32,1.04-.26,1.42,.14,.39,.4,.45,1.01,.16,1.49-.1,.16-.23,.29-.35,.43-1.38,1.45-2.76,2.89-4.14,4.33-.75,.79-1.32,.79-2.06,.02-.65-.67-1.3-1.35-1.93-2.03-.58-.62-.63-1.32-.13-1.83,.5-.52,1.16-.48,1.75,.14,.43,.45,.83,.92,1.3,1.44"/>
  <path d="M46.76,50.44c1.17-1.22,2.29-2.4,3.41-3.58,.15-.16,.3-.33,.47-.46,.46-.38,1.05-.35,1.47,.06,.43,.41,.49,1.07,.15,1.58-.08,.12-.18,.23-.29,.33-1.39,1.46-2.78,2.92-4.17,4.38-.75,.78-1.31,.78-2.06-.01-.65-.67-1.3-1.35-1.93-2.03-.58-.62-.61-1.32-.1-1.84,.49-.49,1.16-.44,1.72,.14,.44,.45,.88,.93,1.34,1.43"/>
  <path d="M46.75,60.06c1.2-1.25,2.33-2.44,3.47-3.63,.74-.78,1.42-.89,1.94-.31,.51,.55,.4,1.25-.31,2-1.35,1.42-2.7,2.84-4.06,4.25-.74,.77-1.29,.78-2.02,.02-.66-.69-1.32-1.37-1.97-2.07-.56-.6-.6-1.27-.13-1.79,.48-.53,1.18-.49,1.75,.1,.43,.45,.85,.91,1.33,1.43"/>
  <path d="M59.35,43.72c-1.09,0-2.18,.01-3.27,0-.69-.01-1.16-.4-1.25-.99-.12-.77,.36-1.41,1.16-1.42,2.27-.02,4.54-.02,6.81,0,.7,0,1.17,.54,1.17,1.21,0,.66-.47,1.18-1.18,1.19-1.14,.03-2.29,0-3.43,0h0Z"/>
  <path d="M59.4,53.32c-1.07,0-2.15,0-3.22,0-.87,0-1.38-.45-1.37-1.21,0-.75,.49-1.18,1.33-1.19,2.16,0,4.32,0,6.49,0,.82,0,1.34,.48,1.33,1.2,0,.71-.53,1.19-1.34,1.19-1.07,0-2.14,0-3.22,0"/>
  <path d="M59.4,62.92c-1.09,0-2.18,0-3.27,0-.84,0-1.32-.45-1.32-1.2,0-.73,.51-1.19,1.33-1.19,2.15,0,4.29,0,6.44,0,.85,0,1.39,.48,1.38,1.21s-.53,1.18-1.4,1.18c-1.06,0-2.11,0-3.17,0"/>
</svg>