<?xml version="1.0" encoding="UTF-8"?>
<svg id="Layer_1" data-name="Layer 1" xmlns="http://www.w3.org/2000/svg" viewBox="0 0 100 100">
  <path d="M75.99,66.12c1.86,0,3.38-1.51,3.38-3.38s-1.51-3.38-3.38-3.38-3.38,1.51-3.38,3.38,1.51,3.38,3.38,3.38m-20.39,7.58c-.62,.62-.62,1.63,0,2.25,3.04,3.04,7.04,4.56,11.04,4.56s7.99-1.52,11.04-4.56c.62-.62,.62-1.63,0-2.25-.62-.62-1.63-.62-2.25,0-4.84,4.85-12.73,4.85-17.57,0-.62-.62-1.63-.62-2.25,0m-1.69-10.96c0,1.87,1.51,3.38,3.38,3.38s3.38-1.51,3.38-3.38-1.51-3.38-3.38-3.38-3.38,1.51-3.38,3.38m-13.36,5.21c1.86,0,3.38-1.51,3.38-3.38s-1.51-3.38-3.38-3.38-3.38,1.51-3.38,3.38,1.51,3.38,3.38,3.38m-15.31-3.38c0-1.86-1.51-3.38-3.38-3.38s-3.38,1.51-3.38,3.38,1.51,3.38,3.38,3.38,3.38-1.51,3.38-3.38m14.75,10.96c-4.85,4.85-12.73,4.85-17.57,0-.62-.62-1.63-.62-2.25,0-.62,.62-.62,1.63,0,2.25,3.04,3.04,7.04,4.56,11.04,4.56s7.99-1.52,11.04-4.56c.62-.62,.62-1.63,0-2.25-.62-.62-1.63-.62-2.25,0M28.2,24.97c0-1.87-1.51-3.38-3.38-3.38s-3.38,1.51-3.38,3.38,1.51,3.38,3.38,3.38,3.38-1.51,3.38-3.38m15.31,3.38c1.87,0,3.38-1.51,3.38-3.38s-1.51-3.38-3.38-3.38-3.38,1.51-3.38,3.38,1.51,3.38,3.38,3.38m-9.35,14.39c4,0,8-1.53,11.04-4.57,.62-.62,.62-1.62,0-2.25-.62-.62-1.63-.62-2.25,0-4.85,4.85-12.73,4.85-17.58,0-.62-.62-1.63-.62-2.25,0-.62,.62-.62,1.63,0,2.25,3.05,3.04,7.04,4.56,11.04,4.56m28.35-14.83c0-1.86-1.51-3.38-3.38-3.38s-3.38,1.51-3.38,3.38,1.51,3.38,3.38,3.38,3.38-1.51,3.38-3.38m14.75,10.96c-4.84,4.85-12.73,4.85-17.58,0-.62-.62-1.63-.62-2.25,0-.62,.62-.62,1.63,0,2.25,3.04,3.04,7.04,4.56,11.03,4.56s8-1.52,11.04-4.56c.62-.62,.62-1.63,0-2.25-.62-.62-1.63-.62-2.25,0m3.94-10.96c0-1.86-1.51-3.38-3.38-3.38s-3.38,1.51-3.38,3.38,1.51,3.38,3.38,3.38,3.38-1.51,3.38-3.38m6.47,3.77c0,1.8-.25,3.59-.75,5.31-1.35,4.7-4.52,8.73-8.74,11.22-2.94-1.43-6.22-2.24-9.7-2.24s-6.75,.78-9.72,2.21c-2.95-1.74-5.37-4.2-7.03-7.2,1.4-2.94,2.17-6.21,2.17-9.6,0-.9-.05-1.81-.16-2.71-.28-2.31-.91-4.51-1.84-6.55,3.43-5.95,9.66-9.62,16.59-9.62,10.58,0,19.19,8.61,19.19,19.19m-36.96-.31c0,7.06-3.84,13.47-10.03,16.85-.95-.43-1.94-.79-2.97-1.09-2.01-.57-4.09-.87-6.19-.87-3.25,0-6.33,.71-9.12,1.97-6.22-3.37-10.07-9.75-10.07-16.85,0-10.58,8.61-19.19,19.19-19.19,1.8,0,3.59,.25,5.31,.74,7.42,2.13,12.81,8.46,13.74,16.12,.09,.77,.13,1.55,.13,2.33m-19.18,18.07c1.81,0,3.59,.25,5.31,.74,7.42,2.13,12.81,8.46,13.74,16.12,.09,.77,.13,1.55,.13,2.33,0,10.58-8.6,19.19-19.18,19.19s-19.19-8.61-19.19-19.19,8.61-19.19,19.19-19.19m18.38,6.43c-1.6-2.31-3.63-4.31-6-5.88,2.4-1.59,4.43-3.59,6.02-5.89,1.54,2.3,3.48,4.29,5.75,5.88-2.24,1.57-4.21,3.56-5.77,5.9m3.99,12.76c0-.9-.05-1.81-.16-2.71-.3-2.44-.99-4.75-2-6.89,3.39-6.11,9.72-9.9,16.75-9.9,10.58,0,19.19,8.61,19.19,19.19,0,1.81-.25,3.59-.75,5.31-2.13,7.42-8.46,12.81-16.12,13.74-.77,.09-1.56,.14-2.33,.14-6.91,0-13.18-3.69-16.61-9.64,1.28-2.82,2.02-5.94,2.02-9.24m36.09-30.77c.58-2,.87-4.08,.87-6.18,0-12.34-10.04-22.37-22.37-22.37-7.45,0-14.23,3.61-18.38,9.6-2.87-4.29-7.2-7.55-12.39-9.05-2.01-.57-4.09-.86-6.19-.86-12.34,0-22.37,10.04-22.37,22.37,0,7.61,3.78,14.52,10,18.63-6.02,4.01-10,10.86-10,18.63,0,12.34,10.04,22.37,22.37,22.37,7.73,0,14.56-3.95,18.58-9.93,4.15,5.99,10.96,9.62,18.38,9.62,.9,0,1.81-.05,2.71-.16,8.93-1.08,16.31-7.36,18.79-16.01,.58-2,.87-4.09,.87-6.19,0-7.58-3.8-14.28-9.58-18.32,4.18-2.93,7.3-7.22,8.71-12.14"/>
</svg>