<?xml version="1.0" encoding="UTF-8"?>
<svg id="Layer_1" data-name="Layer 1" xmlns="http://www.w3.org/2000/svg" viewBox="0 0 100 100">
  <path d="M72.07,23.29c0-1.62,1.28-2.94,2.87-2.94s2.89,1.33,2.89,2.94c0,1.61-1.3,2.93-2.89,2.93-1.6,0-2.88-1.3-2.88-2.92m-46.94,2.91c-1.61,.01-2.9-1.26-2.92-2.89-.02-1.6,1.28-2.95,2.86-2.98,1.58-.02,2.88,1.28,2.9,2.91,.01,1.65-1.23,2.95-2.84,2.96m24.85-10.92c1.59-.02,2.9,1.29,2.91,2.91,.02,1.62-1.27,2.96-2.85,2.97-1.59,.01-2.9-1.3-2.91-2.91-.01-1.62,1.27-2.96,2.85-2.97m-5.77,26.55v7.17c-.83,.17-1.63,.34-2.48,.51-.83-2.26-1.65-4.47-2.45-6.66,1.54-1,3.15-1.3,4.94-1.02m16.56,1.02c-.82,2.23-1.65,4.45-2.47,6.67-.74-.15-1.41-.25-2.05-.44-.19-.06-.44-.36-.45-.55-.04-1.12-.02-2.25-.02-3.37v-3.32c1.83-.32,3.44,.03,4.99,1.01m23.25,41.82h-17.33c1.82-3.21,3.5-6.4,6-9.02,2.17-2.28,5.03-3.3,7.92-4.31,2.03,4.24,3.16,8.62,3.42,13.33M43.35,38.82c0-.14-.01-.22,0-.28,.79-2.82,1.54-5.66,2.4-8.46,.56-1.83,2.33-3.01,4.2-3.03,1.92-.02,3.72,1.14,4.29,2.99,.88,2.84,1.63,5.73,2.43,8.6,.01,.04-.02,.09-.05,.18-.63,0-1.28,0-1.92,0-1.29,0-1.8,.52-1.81,1.81,0,2.4,0,4.81,0,7.21v.75h-5.77v-.78c0-2.4,0-4.8,0-7.2,0-1.25-.53-1.77-1.77-1.78-.67,0-1.34,0-2,0m-4.3,.84c-.72,.31-1.38,.58-2.04,.89-.97,.44-1.24,1.11-.88,2.14,.22,.62,.45,1.24,.68,1.86,.7,1.92,1.41,3.83,2.11,5.74-1.8,.77-3.53,1.51-5.3,2.27-.11-.29-.23-.55-.33-.83-.82-2.22-1.63-4.44-2.46-6.65-.41-1.09-1.11-1.4-2.16-.98-.66,.26-1.32,.54-2.06,.85-.12-.88-.22-1.68-.32-2.47-.27-2.18-.61-4.36-.8-6.55-.18-2.06,.98-3.84,2.81-4.59,1.85-.76,3.89-.25,5.22,1.34,.25,.3,.48,.61,.73,.91,1.59,2.02,3.19,4.03,4.82,6.09m34.39,5.21c-.16-.01-.21,0-.25-.02-.6-.25-1.2-.5-1.8-.74-1.06-.43-1.78-.11-2.18,.95-.36,.93-.69,1.88-1.04,2.81-.58,1.57-1.17,3.14-1.74,4.69-1.8-.77-3.54-1.51-5.31-2.27,.09-.24,.17-.47,.25-.69,.82-2.22,1.64-4.44,2.46-6.66,.49-1.33,.23-1.94-1.03-2.49-.58-.25-1.17-.51-1.82-.79,1.94-2.44,3.79-4.86,5.74-7.19,1.26-1.51,3.37-1.9,5.14-1.11,1.78,.79,2.87,2.61,2.71,4.6-.11,1.34-.31,2.67-.48,4.01-.21,1.62-.42,3.24-.64,4.9m5.74,23.85c-.32,.12-.54,.21-.77,.28-4.88,1.59-8.64,4.6-11.24,9.12-1.16,2.03-2.35,4.04-3.51,6.08-.22,.39-.44,.55-.89,.54-1.3-.03-2.6,.01-3.89-.03-.24,0-.6-.23-.67-.44-.42-1.12-.85-2.24-1.13-3.4-.37-1.46-.1-1.93,1.21-2.67,.84-.47,1.72-.89,2.5-1.45,2.16-1.56,2.57-3.9,1.03-6.08-.8-1.13-1.8-2.1-2.66-3.19-.77-.96-1.6-1.91-2.18-3-.83-1.57-.2-2.77,1.48-3.18,.23-.06,.47-.12,.71-.13,2.16-.1,4.32-.18,6.48-.3,1.83-.1,3.63-.37,5.32-1.17,.19-.09,.56-.03,.73,.1,.59,.47,1.14,.98,1.67,1.51,2.22,2.19,4.15,4.61,5.79,7.39m-24.08,15.96h-20.37c-.24-1.52-.45-2.97-.71-4.4-.24-1.3-.63-2.57-.78-3.88-.2-1.7,.5-2.71,2.11-3.18,.94-.27,1.93-.37,2.89-.57,1.55-.33,3.13-.54,4.62-1.06,1.74-.61,2.56-2.03,2.55-3.94-.01-1.68-.78-2.95-2.01-3.97-1.59-1.31-3.48-1.95-5.41-2.49-3.05-.85-6.16-.98-9.29-.9-.27,.01-.53,0-.94,0,12.72-11.5,29.85-10.95,40.81-2.83-.25,.06-.48,.16-.71,.18-2.44,.16-4.89,.26-7.33,.46-1.19,.1-2.4,.24-3.54,.59-2.32,.71-3.57,2.98-3.14,5.41,.28,1.61,1.11,2.91,2.12,4.11,1.06,1.27,2.2,2.47,3.24,3.75,.99,1.22,.83,1.91-.51,2.69-.79,.46-1.62,.86-2.39,1.35-1.8,1.15-2.57,2.81-2.13,4.95,.25,1.24,.62,2.45,.94,3.72m-42.02-.69v3.68H86.93v-3.68c-.17-1.26-.27-2.52-.5-3.77-1.95-10.71-7.45-19.06-16.18-25.25-1.29-.92-1.3-.91-.75-2.4,.64-1.73,1.28-3.46,1.95-5.24,.81,.34,1.56,.66,2.31,.96,1.32,.54,2.16,.04,2.34-1.39,.43-3.35,.87-6.7,1.28-10.05,.37-3.02-.59-5.49-2.98-7.36-.11-.08-.21-.17-.35-.29,3.89-.28,5.97-1.79,6.54-4.7,.52-2.65-.72-5.26-3.06-6.45-2.33-1.18-5.14-.66-6.85,1.3-1.15,1.31-1.64,2.86-1.46,4.61,.18,1.71,1.04,3.07,2.45,4.23-3.21-.48-5.7,.45-7.63,2.92-.9,1.15-1.81,2.29-2.72,3.43-.66,.83-1.32,1.66-2.03,2.56-.09-.29-.15-.47-.21-.66-.63-2.24-1.24-4.47-1.89-6.7-.82-2.84-2.65-4.64-5.45-5.42-.24-.07-.48-.12-.89-.21,.48-.16,.8-.24,1.11-.36,2.24-.9,3.56-2.58,3.77-5.01,.21-2.47-.83-4.38-2.94-5.63-.59-.35-1.28-.51-1.93-.76h-1.73c-.18,.06-.36,.13-.53,.17-2.38,.63-4.13,2.72-4.35,5.19-.22,2.45,1.11,4.79,3.33,5.84,.45,.21,.93,.35,1.39,.52,0,.02,0,.06-.02,.07-.11,.04-.22,.08-.34,.11-2.93,.65-4.85,2.45-5.76,5.36-.19,.61-.34,1.22-.51,1.83-.52,1.85-1.05,3.7-1.6,5.66-1.52-1.91-3.02-3.7-4.4-5.58-1.98-2.69-4.54-3.88-7.85-3.36,2.65-3.11,3.07-5.71,1.34-8.24-1.51-2.2-4.29-3.07-6.78-2.13-2.41,.92-3.97,3.49-3.69,6.04,.18,1.67,.9,3.04,2.18,4.08,1.28,1.03,2.76,1.38,4.56,1.19-.3,.24-.43,.34-.56,.45-2.22,1.78-3.23,4.11-2.92,6.96,.38,3.48,.86,6.95,1.31,10.42,.18,1.4,1.03,1.89,2.3,1.37,.77-.31,1.54-.64,2.35-.98,.85,2.31,1.67,4.54,2.49,6.76-.19,.14-.31,.23-.43,.3-3.23,2.09-6.12,4.59-8.56,7.59-1.24,1.52-2.36,3.15-3.45,4.79-.68,1.02,0,2.27,1.15,2.28,.62,0,1-.34,1.35-.83,1.07-1.51,2.18-2.99,3.25-4.49,.27-.38,.59-.49,1.04-.48,1.46,.03,2.93,.04,4.4,0,2.42-.07,4.8,.16,7.15,.75,1.68,.43,3.35,.93,4.72,2.08,.61,.51,.98,1.17,.79,2.01-.18,.76-.85,.94-1.47,1.13-.14,.04-.28,.07-.42,.09-1.73,.29-3.47,.51-5.19,.87-3.66,.75-5.43,3.14-5,6.9,.19,1.64,.74,3.24,1.04,4.87,.17,.89,.17,1.81,.24,2.73H15.93c.18-1.45,.33-2.84,.53-4.22,.16-1.08-.26-1.86-1.16-2.02-.83-.15-1.51,.45-1.67,1.5-.2,1.35-.38,2.71-.56,4.06"/>
  <path d="M16.94,75c.79,.02,1.47-.66,1.46-1.47,0-.78-.64-1.44-1.41-1.46-.79-.02-1.47,.66-1.46,1.47,0,.78,.64,1.44,1.41,1.46"/>
</svg>