<?xml version="1.0" encoding="UTF-8"?>
<svg id="Layer_1" data-name="Layer 1" xmlns="http://www.w3.org/2000/svg" viewBox="0 0 100 100">
  <path d="M14.42,64.28c.25,.18,.51,.38,.77,.55,6.15,4.22,12.31,8.44,18.46,12.66,5.56,3.82,11.73,5.9,18.49,6.1,6.24,.18,12.48,.19,18.72,.17,3.47-.01,6.47,1.03,9.04,3.3,.57,.5,1.17,.97,1.85,1.54,1.49-5.2,2.94-10.28,4.4-15.4-1.24-.71-2.46-1.38-3.66-2.08-5.3-3.11-10.75-5.94-16.71-7.55-4.89-1.32-9.87-2.32-14.81-3.43-2.34-.52-4.7-1.01-7.06-1.45-1.54-.29-2.61,.76-2.43,2.31,.14,1.17,.83,1.89,1.9,2.34,4.84,2.03,9.66,4.08,14.49,6.13,1.72,.73,3.44,1.44,5.15,2.18,.84,.36,1.2,1.02,.97,1.75-.25,.79-.85,1.08-1.66,1.02-.18-.01-.36-.02-.53-.04-4.59-.39-9.17-.8-13.76-1.17-6.93-.54-13.5-2.34-19.6-5.64-2.44-1.32-4.74-2.9-7.06-4.44-2.38-1.58-5.43-1.14-6.95,1.14m39.04,6.43c-1.51-.65-3.03-1.29-4.55-1.93-2.27-.96-4.53-1.9-6.79-2.87-2.76-1.19-4.12-4-3.29-6.73,.68-2.25,2.89-3.74,5.22-3.3,4.69,.89,9.35,1.93,14.04,2.86,5.99,1.19,11.86,2.79,17.33,5.49,4.4,2.18,8.66,4.65,12.97,7.01,.87,.47,1,1,.69,2.11-1.18,4.16-2.37,8.31-3.55,12.47-.51,1.78-1.01,3.56-1.53,5.34-.43,1.46-1.48,1.78-2.68,.79-1.21-.99-2.41-2.01-3.61-3.01-1.87-1.57-4.02-2.32-6.47-2.33-6.12-.02-12.24-.04-18.36-.15-7.98-.14-15.17-2.61-21.68-7.21-6.36-4.49-12.83-8.82-19.25-13.22-1.41-.97-1.5-1.65-.38-2.92,.55-.62,1.07-1.27,1.69-1.81,2.86-2.51,6.82-2.6,10.07-.21,3.35,2.47,6.95,4.51,10.82,6.07,4.97,2,10.15,3.04,15.49,3.39,1.26,.08,2.53,.2,3.79,.3,.02-.04,.03-.09,.05-.13"/>
  <path d="M48.13,14.61c.01-2.34-1.91-4.26-4.29-4.26-2.32,0-4.25,1.91-4.26,4.2,0,2.35,1.93,4.27,4.29,4.26,2.33,0,4.25-1.9,4.26-4.2m14.27,19.72c-.01-2.34-1.96-4.23-4.34-4.21-2.32,.02-4.23,1.95-4.21,4.25,.02,2.35,1.97,4.24,4.34,4.21,2.33-.03,4.22-1.94,4.21-4.25m-28.53,0c-.02-2.35-1.97-4.24-4.34-4.22-2.33,.03-4.22,1.94-4.22,4.25,.01,2.34,1.96,4.24,4.34,4.22,2.32-.02,4.23-1.95,4.22-4.25m-12.84,23.98h-2.85v-11.09c0-4.12,2.57-6.88,6.71-7.23,.07,0,.15-.04,.24-.07-2.88-3.23-3.42-6.07-1.75-9.04,1.7-3.02,4.42-3.97,9.02-3.13-.06-5.03,3.51-7.47,7.1-7.58-2-1.74-3-3.85-2.72-6.43,.2-1.82,1.03-3.36,2.44-4.56,2.82-2.41,7.06-2.24,9.7,.39,2.93,2.92,2.73,6.73-.57,10.57,4.73,.38,7.11,3.76,6.96,7.62,3.96-1.14,7.19-.22,9.19,3.5,1.53,2.84,.81,5.74-1.93,8.66,.63,.1,1.23,.16,1.82,.3,2.81,.7,5.03,3.22,5.1,6.1,.1,3.97,.03,7.94,.03,11.97h-2.84v-.93c0-3.41,0-6.82,0-10.24,0-2.65-1.66-4.29-4.34-4.3-2.82,0-5.64,0-8.47,0-2.66,0-4.31,1.66-4.31,4.32,0,2.29,0,4.58,0,6.92h-2.79c0-2.75-.22-5.5,.06-8.2,.34-3.44,2.9-5.48,6.91-5.93-1.33-1.15-2.24-2.47-2.59-4.14-.38-1.82-.03-3.49,.88-5.09,.22-.39,.34-.86,.37-1.3,.06-.82,.04-1.65,.01-2.47-.07-2.15-1.77-3.85-3.95-3.88-3.06-.03-6.12-.03-9.18,0-2.22,.02-3.92,1.73-3.98,3.93-.01,.38,.01,.77,0,1.15-.06,1.15,.13,2.19,.7,3.27,1.5,2.86,.72,5.95-2,8.51,.5,.08,.95,.13,1.38,.21,3.03,.58,5.34,2.94,5.56,5.97,.17,2.37,.05,4.76,.06,7.15v.83h-2.85v-.82c0-2.09,.01-4.18,0-6.27-.01-2.47-1.71-4.15-4.2-4.16-2.88-.01-5.77-.01-8.65,0-2.6,0-4.26,1.68-4.27,4.28,0,3.7,0,7.41,0,11.22"/>
</svg>