<?xml version="1.0" encoding="UTF-8"?>
<svg id="Layer_1" data-name="Layer 1" xmlns="http://www.w3.org/2000/svg" viewBox="0 0 100 100">
  <path d="M49.99,78.16h0c-1.01,0-1.95,.39-2.67,1.1-.72,.71-1.11,1.65-1.11,2.64,0,.99,.41,1.93,1.14,2.63,.71,.69,1.65,1.07,2.64,1.07h.04c2.04-.02,3.72-1.68,3.73-3.69,0-.99-.38-1.93-1.1-2.64-.72-.71-1.67-1.1-2.67-1.1"/>
  <path d="M69.99,18.23c-4.44-.02-8.95-.02-13.31-.02h-3.99s-7.17,0-7.17,0c-4.8,0-10.22,0-15.55,.02,.02-.41,.02-.81,.02-1.21,0-.52,0-1.01,.03-1.5,.1-1.23,1.03-2.11,2.32-2.2,.14,0,.29,0,.45,0h34.13c2.18,0,3.08,.87,3.08,3,0,.23,0,.45,0,.69,0,.4-.01,.8,0,1.21m-23.73,54.35h-14.59c-.13,0-.26,0-.36,0h-.1c-.39,0-.81,0-1.25,0v-7.55c0-13.86,0-28.19-.02-42.32,13.72,.02,27.2,.02,40.06,0-.02,6.57-.02,13.25-.02,19.71v10.49c0,6.45,0,13.12,.02,19.69-7.22-.02-17-.02-23.75-.02m23.73,8.86c0,.76,0,1.53,0,2.29,0,2.04-.92,2.95-2.97,2.95-11.37,0-22.73,0-34.1,0-2.01,0-2.95-.91-2.96-2.87,0-1,0-1.99,0-3,0-1.21,0-2.46,0-3.71,.41,0,.82,0,1.21,0,.22,0,.45,0,.69,0h.05c1.09,0,3.06,0,5.7,0h6.17c8.59,0,17.47,0,26.21-.02-.02,1.46-.02,2.94-.02,4.37m4.59-48.03v-.09c0-5.58,0-11.16,0-16.74v-.05c0-.77,0-1.57-.23-2.4-.93-3.37-3.57-5.3-7.25-5.3-11.39,0-22.79,0-34.18,0-4.58,0-7.55,2.89-7.55,7.36-.01,22.28,0,44.8,0,66.57v1.1c0,1.38,.25,2.5,.78,3.52,1.03,1.97,2.75,3.21,5.24,3.79l.12,.03h36.9l.12-.03c3.98-.9,6.08-3.7,6.06-8.1-.05-16.55-.04-33.38-.04-49.66"/>
</svg>