<?xml version="1.0" encoding="UTF-8"?>
<svg id="Layer_1" data-name="Layer 1" xmlns="http://www.w3.org/2000/svg" viewBox="0 0 100 100">
  <path d="M19.96,75.27c1.3-1.86,3.38-3.04,5.71-3.24,.47-.04,.95-.04,1.49-.04,5.61,0,11.21,0,16.82,0h15.41c7.14,0,14.53,0,21.8-.02,.09,0,.15,0,.2,0v.18c-.06,1.57-.04,3.14-.01,4.88-.14,0-.27,0-.4,0-.06,0-.13,0-.19,0h-8.98c-14.54,0-29.57,0-44.36-.02h0c-.49,0-1.05,.05-1.43,.43-.39,.38-.42,.92-.41,1.35v.13c.04,1.19,.06,1.85,.57,2.31,.5,.45,1.21,.45,2.48,.45h8.68c14.32,0,29.12,0,43.69-.02,.2,0,.31,0,.37,.02,0,.05,.01,.14,0,.27-.09,1.58-.05,3.18,0,4.8h-.02c-7.94,0-15.87,0-23.81,0-10.1,0-20.53,0-30.8-.02-3.77,0-6.65-1.95-7.72-5.19-.7-2.13-.36-4.42,.93-6.27M81.37,13.68c0,.05,.01,.14,.01,.27-.03,6.93-.03,13.98-.02,20.8v11.33c0,6.86,0,13.96,.02,20.93,0,.16,0,.25-.01,.31-.05,0-.13,.01-.26,.01-8.05-.02-16.22-.02-24.45-.02s-16.13,0-24.22,.02c-.13,0-.22,0-.27-.01,0-.06-.01-.16-.01-.31,.02-19.63,.02-36.96,0-52.96,0-.2,.01-.31,.02-.36,.06-.01,.18-.02,.4-.02,15.41,.03,31.27,.03,48.48,0,.16,0,.26,0,.32,.01M27.3,66.95c0,.2,0,.31-.02,.38-.05,0-.14,.01-.29,0-3.19-.1-5.95,.74-8.38,2.56V21.72c0-3.43,1.44-5.81,4.4-7.27,1.23-.61,2.56-.76,4.27-.78,0,.09,0,.17,0,.25v8.49c0,14.59,0,29.68,.02,44.53M86.22,11.89c0-2-.91-2.85-3.05-2.85-2.26,0-4.51,0-6.76,0h-16.1c-11.08,0-22.54,0-33.81,0-6.03,0-10.9,3.66-12.4,9.3-.04,.16-.05,.31-.06,.43,0,.04,0,.08,0,.12l-.27,.17v62.45l.24,.08c1.36,5.96,6.28,9.8,12.59,9.81,8.3,0,16.67,0,24.99,0h31.67c2.04,0,2.95-.88,2.95-2.86,0-25.55,0-51.1,0-76.66"/>
  <path d="M72.74,26.64c.09,0,.16,0,.21,0,0,.04,0,.11,0,.19-.04,3.44-.04,7.07,0,11.11,0,.1,0,.17,0,.22-.04,0-.11,0-.18,0-5.27-.02-10.6-.02-16.08-.02-5.17,0-10.47,0-15.95,.02-.07,0-.11,0-.16,0,0-.04,0-.09,0-.15,.04-4.12,.04-7.78,0-11.2,0-.07,0-.12,0-.16,.05,0,.12,0,.23,0,4.05,.02,8.16,.02,12.15,.02h7.69c3.97,0,8.07,0,12.1-.02m-33.85-4.66c-2.29,0-3.14,.8-3.14,2.95,0,5.01,0,10.01,0,15.01,0,2.03,.9,2.9,3.01,2.9,6.06,0,12.07,0,18,0s12.12,0,18.01,0c2.08,0,3-.9,3-2.91,0-4,0-7.99,0-11.99v-2.84c0-2.34-.83-3.13-3.26-3.13h-22.69c-4.31,0-8.62,0-12.93,0"/>
</svg>