<?xml version="1.0" encoding="UTF-8"?>
<svg id="Layer_1" data-name="Layer 1" xmlns="http://www.w3.org/2000/svg" viewBox="0 0 100 100">
  <path d="M38.03,5.98c1.55,.28,3.12,.45,4.63,.86,12.24,3.32,19.8,11.05,22.62,23.19,.23,1-.17,1.7-1,1.86-.78,.16-1.43-.4-1.63-1.42-.55-2.8-1.51-5.46-2.96-7.93-4.56-7.72-11.33-12.37-20.36-13.66-14.54-2.08-28.32,7.41-31.11,21.49-1.72,8.7,.42,16.53,6.37,23.25,.98,1.11,1.07,1.98,.43,3.22-1.19,2.32-2.79,4.28-5.09,5.94,1.57,.21,2.93,.15,4.28-.13,2.16-.45,4.09-1.37,5.73-2.81,.68-.6,1.32-.71,2.14-.27,2.52,1.37,5.2,2.32,8.04,2.84,.97,.18,1.52,.84,1.36,1.58-.17,.81-.87,1.17-1.9,.99-2.63-.47-5.14-1.3-7.53-2.47-.55-.27-.9-.21-1.39,.13-4.42,3.05-9.2,3.71-14.31,1.99-.49-.17-.9-.57-1.34-.87v-1.03c.42-.29,.8-.66,1.26-.87,2.57-1.19,4.54-2.98,5.96-5.39,.37-.64,.35-1.06-.15-1.64-3.02-3.51-5.12-7.5-6.19-11.98-.36-1.5-.59-3.02-.87-4.53v-5.16c.23-1.28,.39-2.59,.72-3.85,3.07-11.73,10.57-19.25,22.51-22.46,1.48-.4,3.02-.58,4.53-.86h5.27Z"/>
  <path d="M89.93,91.23c-.26-.21-.41-.34-.57-.46-1.93-1.51-3.36-3.38-4.48-5.54-.64-1.24-.42-2.09,.5-3.13,5.94-6.76,8.17-14.62,6.31-23.33-3.23-15.1-17.96-24.29-33.31-21.01-14.1,3.01-23.59,16.67-21.27,30.61,2.16,12.97,12.96,22.43,26.37,23.02,4.92,.21,9.57-.87,13.94-3.08,1.51-.77,1.61-.77,2.87,.25,1.46,1.19,3.12,2.03,4.96,2.46,1.49,.35,3.01,.6,4.69,.22m-55.99-27.06c.28-14.14,10.28-26.19,24.27-29.1,15.71-3.27,31.45,6.04,35.63,21.3,2.72,9.92,.62,18.97-6.01,26.97-.44,.53-.5,.9-.15,1.5,1.4,2.46,3.39,4.29,5.99,5.46,.66,.3,1.29,.59,1.26,1.44-.03,.9-.71,1.17-1.43,1.4-5.09,1.65-9.85,.99-14.24-2.05-.5-.35-.86-.37-1.41-.11-17.84,8.47-39.1-1.68-43.12-20.61-.43-2.03-.55-4.13-.81-6.2"/>
  <path d="M35.45,31.92c-3.36,0-6.72,0-10.08,0-.34,0-.71-.03-1.02-.15-.58-.23-.83-.7-.76-1.31,.07-.61,.41-1,1.04-1.11,.31-.05,.64-.06,.96-.06,6.55,0,13.1,0,19.64,0,1.39,0,2.07,.42,2.09,1.29,.02,.9-.69,1.35-2.12,1.35h-9.73"/>
  <path d="M35.45,37.07c-3.36,0-6.72,0-10.08,0-.34,0-.71-.03-1.02-.16-.58-.23-.83-.7-.76-1.31,.07-.61,.41-1,1.04-1.11,.32-.05,.64-.06,.96-.06,6.55,0,13.1,0,19.64,0,1.39,0,2.07,.42,2.09,1.3,.02,.9-.69,1.35-2.13,1.35h-9.73"/>
  <path d="M32.31,42.23c-2.34,0-4.68,0-7.01,0-.34,0-.71-.04-1.02-.18-.56-.25-.88-.78-.66-1.33,.16-.41,.59-.77,.99-1.04,.23-.15,.62-.08,.94-.08,4.5,0,9.01,0,13.51,0,1.39,0,2.06,.43,2.06,1.31s-.69,1.33-2.06,1.33h-6.75"/>
  <path d="M64.57,57.74c3.33,0,6.66,0,10,0,.34,0,.71,.03,1.02,.15,.58,.22,.83,.69,.77,1.3-.06,.61-.4,1.01-1.03,1.12-.34,.06-.7,.06-1.05,.06-6.52,0-13.04,0-19.55,0-1.39,0-2.07-.42-2.1-1.28-.03-.9,.68-1.36,2.11-1.36h9.82"/>
  <path d="M59.32,62.94c3.33,0,6.66-.02,10,.02,.5,0,1.12,.22,1.46,.56,.64,.62,.23,1.75-.66,1.97-.36,.09-.75,.09-1.13,.09-6.52,0-13.04,0-19.56,0-.2,0-.41,0-.61,0-.92-.06-1.53-.61-1.5-1.35,.02-.75,.65-1.28,1.57-1.28,3.48-.01,6.96,0,10.44,0"/>
  <path d="M64.56,68.06c3.36,0,6.72-.03,10.08,.03,.53,0,1.21,.31,1.55,.7,.53,.62,.06,1.62-.77,1.82-.36,.09-.75,.09-1.13,.09-6.52,0-13.04,0-19.56,0-.2,0-.41,0-.62,0-.91-.06-1.52-.62-1.49-1.36,.03-.75,.65-1.27,1.58-1.28,3.45,0,6.9,0,10.35,0"/>
</svg>