<svg viewBox="0 0 102 102" fill="none" xmlns="http://www.w3.org/2000/svg">
<path d="M21.5505 38.2722C21.5505 35.6009 23.7217 33.4324 26.3823 33.4324C29.0428 33.4324 31.2141 35.6009 31.2141 38.2722C31.2141 40.9434 29.0428 43.1119 26.3823 43.1119C23.7217 43.1119 21.5505 40.912 21.5505 38.2722Z" fill="#B2469A"/>
<path d="M70.7859 38.2722C70.7859 35.6009 72.9572 33.4324 75.6178 33.4324C78.2783 33.4324 80.4496 35.6009 80.4496 38.2722C80.4496 40.9434 78.2783 43.1119 75.6178 43.1119C72.9572 43.1119 70.7859 40.912 70.7859 38.2722Z" fill="#B2469A"/>
<path d="M77.8807 59.3595C74.3028 70.8303 63.6299 79.127 51 79.127C38.37 79.127 27.6972 70.7989 24.1193 59.3595H77.8807ZM101 51C101 78.6241 78.6147 101 51 101C23.3853 101 1 78.6241 1 51C1 23.3759 23.3853 1 51 1C78.6147 1 101 23.3759 101 51Z" stroke="#B2469A" stroke-width="1.6" stroke-miterlimit="10" stroke-linecap="round" stroke-linejoin="round"/>
</svg>
