<svg  viewBox="0 0 102 102" fill="none" xmlns="http://www.w3.org/2000/svg">
<path d="M21.5811 38.2722C21.5811 35.6009 23.7523 33.4324 26.4129 33.4324C29.0734 33.4324 31.2447 35.6009 31.2447 38.2722C31.2447 40.9434 29.0734 43.1119 26.4129 43.1119C23.7523 43.1119 21.5811 40.9434 21.5811 38.2722Z" fill="#C57BB4"/>
<path d="M67.2399 38.2722C67.2399 35.6009 69.1741 33.4324 71.5441 33.4324C73.9141 33.4324 75.8482 35.6009 75.8482 38.2722C75.8482 40.9434 73.9141 43.1119 71.5441 43.1119C69.1741 43.1119 67.2399 40.9434 67.2399 38.2722Z" fill="#C57BB4"/>
<path d="M25.1896 64.6392H76.8104M101 51C101 78.6241 78.6147 101 51 101C23.3853 101 1 78.6241 1 51C1 23.3759 23.3853 1 51 1C78.6147 1 101 23.3759 101 51Z" stroke="#C57BB4" stroke-width="1.6" stroke-miterlimit="10" stroke-linecap="round" stroke-linejoin="round"/>
</svg>
