<svg viewBox="0 0 102 102" fill="none" xmlns="http://www.w3.org/2000/svg">
<path d="M101 51C101 78.6241 78.6147 101 51 101C23.3853 101 1 78.6241 1 51C1 23.3759 23.3853 1 51 1C78.6147 1 101 23.3759 101 51Z" stroke="#B1D577" stroke-width="1.6" stroke-miterlimit="10" stroke-linecap="round" stroke-linejoin="round"/>
<path d="M21.581 38.2721C21.581 35.6008 23.7523 33.4324 26.4128 33.4324C29.0734 33.4324 31.2446 35.6008 31.2446 38.2721C31.2446 40.9434 29.0734 43.1118 26.4128 43.1118C23.7217 43.0804 21.581 40.9119 21.581 38.2721Z" fill="#B1D577"/>
<path d="M70.7859 38.2721C70.7859 35.6008 72.9571 33.4324 75.6177 33.4324C78.2782 33.4324 80.4495 35.6008 80.4495 38.2721C80.4495 40.9434 78.2782 43.1118 75.6177 43.1118C72.9571 43.0804 70.7859 40.9119 70.7859 38.2721Z" fill="#B1D577"/>
<path d="M74.2109 63.5392L79.0122 65.1106M27.7889 63.5392L22.9877 65.1106M76.1987 64.3249C72.8654 71.7102 62.8348 77.0842 50.9999 77.0842C39.1651 77.0842 29.1345 71.7102 25.8011 64.3249" stroke="#B1D577" stroke-width="1.6" stroke-miterlimit="10" stroke-linecap="round" stroke-linejoin="round"/>
</svg>
