<?xml version="1.0" encoding="UTF-8"?>
<svg id="Layer_1" data-name="Layer 1" xmlns="http://www.w3.org/2000/svg" viewBox="0 0 100 100">
  <path d="M76.04,49.63c-.28-2.73-2.3-4.74-4.96-4.79-3.62-.07-7.24-.05-10.87-.01-.98,0-1.12-.2-.62-1.06,1.85-3.19,3.63-6.41,5.47-9.6,.6-1.05,.72-2.16,.45-3.3-.52-2.19-1.92-3.56-4.1-4.03-2.15-.46-4.28,.49-5.43,2.43-1.78,3-3.5,6.03-5.25,9.05-.72,1.24-.72,1.24-1.47-.05-1.69-2.92-3.39-5.84-5.06-8.76-.63-1.1-1.5-1.92-2.67-2.4-2.01-.82-4.32-.27-5.8,1.35-1.51,1.65-1.82,3.94-.67,6,1.74,3.12,3.54,6.22,5.36,9.3,.49,.84,.39,1.08-.61,1.06-3.37-.04-6.75-.02-10.13-.01-.65,0-1.3,0-1.93,.18-2.41,.71-4.05,3.1-3.75,5.48,.34,2.74,2.34,4.65,5.05,4.69,3.54,.06,7.08,.05,10.62,0,1.03-.02,1.36,.21,.76,1.16-1.99,3.19-3.81,6.48-5.62,9.78-.27,.5-.37,1.07-.4,1.65-.12,2.38,1.32,4.48,3.58,5.23,2.3,.76,4.76-.07,6.04-2.21,1.76-2.94,3.4-5.96,5.11-8.94,.23-.4,.39-1.02,.91-1.02,.48,0,.56,.62,.77,.99,1.72,2.95,3.39,5.93,5.14,8.85,1.54,2.56,4.59,3.33,7.1,1.89,2.48-1.43,3.31-4.46,1.89-7.09-.81-1.5-1.67-2.98-2.55-4.44-.94-1.56-1.69-3.24-2.84-4.67-.53-1.07-.05-1.21,.94-1.19,3.29,.06,6.59,.03,9.89,.02,.61,0,1.23-.01,1.81-.16,2.41-.61,4.11-3.03,3.87-5.39"/>
  <path d="M50,90c-22.58,0-40.85-18.81-39.97-41.58C10.83,27.66,27.66,10.83,48.42,10.03c22.77-.88,41.58,17.39,41.58,39.97,0,7.32-1.95,14.36-5.68,20.56-.93,1.55-2.99,1.96-4.46,.9-1.31-.94-1.67-2.72-.84-4.1,3.68-6.13,5.31-13.25,4.64-20.57-1.48-16.12-14.4-28.98-30.52-30.45-20.05-1.82-36.96,13.99-36.96,33.67,0,18.64,15.17,33.81,33.81,33.81,5.71,0,11.27-1.42,16.22-4.14,1.41-.77,3.18-.34,4.06,1,1,1.51,.49,3.56-1.1,4.43-5.86,3.21-12.43,4.89-19.18,4.89"/>
</svg>