<?xml version="1.0" encoding="UTF-8"?>
<svg id="Layer_1" data-name="Layer 1" xmlns="http://www.w3.org/2000/svg" viewBox="0 0 100 100">
  <path d="M78.17,33.24c.19-.22,.39-.45,.58-.67,1.51-1.71,2.94-3.33,3.47-5.55,.99-4.13-.76-8.44-4.26-10.49-3.66-2.14-8.22-1.65-11.35,1.23-.34,.32-.66,.67-.99,1.05-.16,.18-.31,.36-.49,.54-.57,.6-1.17,1.23-1.16,1.42,0,.2,.65,.79,1.27,1.36,1.03,.95,2.07,1.89,3.1,2.84,2.97,2.71,6.03,5.51,9.02,8.3,.01,.01,.02,.02,.03,.03,.28,.25,.38,.27,.38,.28,.01,0,.11-.04,.39-.36m-18.31-8.21c-5.41,5.94-10.93,11.97-16.27,17.79l-4.32,4.71-4.41,4.81c-5.23,5.71-10.64,11.62-15.98,17.4-.3,.33-.33,.44-.34,.44,0,0,.03,.11,.33,.36,1.34,1.12,2.72,2.38,4.34,3.97,.2,.19,.3,.25,.34,.27,.04-.02,.13-.09,.3-.28,1.3-1.48,2.66-2.95,3.97-4.37,.52-.56,1.03-1.12,1.55-1.68l6.57-7.18c9.44-10.3,19.19-20.95,28.81-31.4,.37-.4,.37-.53,.37-.54,0,0-.01-.12-.4-.45-.7-.58-1.4-1.2-2.11-1.85-.7-.65-1.41-1.32-2.14-2.05-.16-.16-.25-.22-.3-.25-.04,.03-.14,.1-.31,.29M18.4,84.66l7.63-.33-7.96-7.29,.33,7.62Zm13.78-1.94c.2,.2,.3,.25,.34,.26,.04-.02,.15-.09,.38-.35,5.37-5.89,10.84-11.86,16.14-17.64l4.3-4.7,4.46-4.87c5.24-5.73,10.66-11.64,16.01-17.44,.29-.31,.31-.43,.32-.43,0,0-.03-.11-.35-.38-1.48-1.25-2.91-2.57-4.25-3.9-.24-.25-.36-.31-.39-.32-.04,.02-.15,.08-.38,.34-5.03,5.54-10.17,11.14-15.14,16.56-1.45,1.58-2.9,3.16-4.35,4.74l-4.54,4.95c-5.52,6.03-11.24,12.27-16.89,18.39-.3,.33-.34,.44-.34,.44,0,0,.04,.11,.33,.36,1.45,1.21,2.91,2.55,4.34,3.98m-.09,6.73c-3.56,.13-7.18,.3-10.69,.45-1.69,.07-3.38,.15-5.06,.22-2.47,.11-3.43-.78-3.54-3.29-.07-1.54-.13-3.09-.2-4.63-.14-3.53-.29-7.18-.49-10.77-.08-1.45,.34-2.59,1.37-3.71,6.37-6.91,12.82-13.96,19.06-20.78l5.5-6.01c2.37-2.58,4.74-5.16,7.11-7.74,5.44-5.92,11.07-12.04,16.55-18.12,5.58-6.17,14.48-7,20.7-1.92,.24,.19,.47,.39,.69,.59,2.8,2.57,4.48,5.99,4.75,9.72,.3,4.17-1.17,8.26-4.15,11.51-7.09,7.74-14.18,15.48-21.27,23.21-9.1,9.93-18.19,19.85-27.28,29.79-.87,.94-1.84,1.41-3.08,1.45"/>
</svg>