<svg id="Layer_1" data-name="Layer 1" xmlns="http://www.w3.org/2000/svg" viewBox="0 0 512 512"><path d="M472.24,315.73c-5.89-1.12-8.24-4.75-8.21-10.68.11-27.31.07-195,0-222.3,0-21.06-14.08-35.25-35-35.26q-173.22,0-346.44,0c-20.54,0-34.8,14.27-34.81,34.79q0,116,0,232c0,19.26,13.87,34,33,34.27,26.65.38,53.31.1,80.09.1.13-2.83-2.23-3.79-3.65-5.22Q125.06,311,92.69,278.63c-7.22-7.23-7.23-10.35-.1-17.52,8.64-8.67,17.21-17.42,26-26a11.41,11.41,0,0,0,3.72-9q-.2-43.39,0-86.78c0-6,2.95-8.87,8.24-8.85,5.1,0,8.36,3.24,8.72,8.71.09,1.4,0,2.81,0,4.21,0,29.33.06,58.66-.08,88A12,12,0,0,0,143,241q21,20.69,41.66,41.78c3,3.08,4.46,2.88,7.36-.14C204,270.12,216.26,258,228.38,245.7a56.58,56.58,0,0,1,42-17.51c27.47.08,54.94-.06,82.4,0,41,.16,71.54,31,71.64,72.23,0,14.46.1,28.93-.06,43.39,0,3.58.93,4.84,4.71,4.91,19.26.35,34.77-14.41,34.95-33.71.11-11.05.18-22.1,0-33.14-.12-6.09,2.08-10.07,8.19-11.47,6.52,1.05,8.93,5,8.78,11.44-.25,10.64,0,21.29-.07,31.94-.16,29.16-20.87,50.79-49.95,51.44-5.92.13-6.69,2.14-6.57,7.18.3,13,.14,26.11.08,39.16,0,7.58-3,10.51-10.57,10.57-10.22.08-20.45.16-30.67-.06-3.49-.07-4.39,1.09-4.35,4.47.16,14.66.11,29.32.05,44,0,8.07-2.79,10.81-10.82,10.82q-58,0-116.08,0c-8.43,0-11.25-2.73-11.3-11.1-.08-12.86-.07-90.69,0-103.55,0-7.14,3.27-11.21,8.82-11.39,5.18-.16,8.4,4.16,8.45,11.58.07,9.44.13,83.86,0,93.29,0,3.07.75,4.11,4,4.1,31.88-.12,63.75-.19,95.63.05,5.16,0,4.11-2.94,4.11-5.77q0-67.19,0-134.38v-9.64c0-9.3,2.79-13.76,8.7-14s8.94,4.42,8.94,14.2c0,27.72.2,55.44-.15,83.15-.07,5.93,1.53,7.72,7.3,7.13a90.53,90.53,0,0,1,15.62,0c4.2.3,5.37-1,5.34-5.27-.19-27.72,0-55.44-.15-83.16,0-9.2.79-18.43-1-27.63-4.71-24.75-26.11-43.32-51.13-43.54-28.87-.26-57.74-.15-86.61,0-10.95.05-20.13,4.5-27.78,12.29q-21.74,22.13-43.51,44.18c-7,7.11-10.46,7.1-17.6-.05-16-16-32.08-32-47.95-48.25-2.77-2.83-4.3-3.53-7.32-.21-5.12,5.63-10.85,10.7-16.5,16.17,22.41,22.42,44.26,44.52,66.4,66.34,8.35,8.22,20.57,7.8,29.16-.63,12.61-12.37,25-24.93,37.45-37.47,3.27-3.29,6.64-6,11.59-3.92s5.52,6.36,5.52,11c0,25.31,0,50.62,0,75.93a25.59,25.59,0,0,1-.38,4.79c-.78,4-3.27,6.6-7.31,6.78-4.38.19-7.83-1.74-9-6.32a32.79,32.79,0,0,1-.55-5.36c-.45-4.92,2.24-11.65-1.13-14.3-3.14-2.48-9.56-.91-14.53-.91-47.31,0-94.62.07-141.94-.05-27-.07-47-16.81-51.49-42.86A56.81,56.81,0,0,1,31,313Q31,198.2,31,83.4c0-31.53,21.29-52.79,52.86-52.79q172,0,344,0c31.92,0,53,21.2,53,53.24,0,26.92-.05,194.19.05,221.1C481,311.16,478.56,314.91,472.24,315.73ZM216.32,348.67c6.68,0,13.28,0,19.87,0,1.72,0,4.13.46,4.2-2.14.19-7.42.06-14.86.06-22Z"/><path d="M472.22,235.58c-7.72-2.87-8.67-4.83-8.17-15.58.26-5.5,3-8.46,8.37-9.16,6.31.73,8.58,4.54,8.56,10.6C480.93,231.68,480,233.42,472.22,235.58Z"/><path d="M312.35,211.51c-28.61.08-51.55-22.4-51.66-50.63-.12-29.35,22.57-53.15,51.62-52.74,29.44.41,51.16,22.8,51.59,51.77C364.32,188.43,340.83,211.43,312.35,211.51ZM312,194.37a34.43,34.43,0,1,0-34.17-35C277.64,178.88,292.68,194.29,312,194.37Z"/></svg>