<?xml version="1.0" encoding="UTF-8"?>
<svg id="Layer_1" data-name="Layer 1" xmlns="http://www.w3.org/2000/svg" viewBox="0 0 100 100">
  <defs>
    <style>
      .cls-1 {
        fill: none;
      }

      .cls-2 {
        fill: #939598;
      }
    </style>
  </defs>
  <path class="cls-2" d="M59.46,77.76c-.18,0-.36-.05-.52-.14-.32-.18-.51-.52-.51-.89v-3.78l-4.34,2.36c-1.3,.72-2.72,.75-3.88,.07-.07-.04-.14-.08-.2-.13l-29.11-16.07c-1.09-.6-1.9-1.58-2.22-2.69-.16-.55-.2-.95-.17-1.24,.01-2.5,1.2-4.21,3.96-5.74l1.24-.77c.48-.3,1.12-.15,1.42,.33,.3,.48,.15,1.12-.33,1.42l-1.28,.79c-2.16,1.19-2.94,2.27-2.94,4,0,.03,0,.06,0,.09,0,.07,.01,.26,.09,.52,.17,.59,.62,1.12,1.23,1.46l26.35,14.54c0-.07,0-.14,0-.2,0-2.52,1.18-4.25,3.96-5.78l25.53-14.09c.19-.1,.21-.26,.21-.34s-.03-.23-.21-.34c-.5-.28-.68-.9-.41-1.4,.28-.5,.91-.68,1.4-.4,.8,.44,1.28,1.24,1.28,2.14s-.48,1.7-1.28,2.14l-25.53,14.09c-2.11,1.17-2.9,2.24-2.9,3.98,0,.82,.37,1.54,.96,1.88,.52,.31,1.16,.27,1.84-.1l5.87-3.2c.32-.17,.71-.17,1.02,.02,.31,.19,.5,.52,.5,.89v3.73l3.07-1.76v-4.87c0-.87-.51-1.68-1.31-2.12-.5-.27-.68-.9-.41-1.4,.27-.5,.9-.68,1.4-.41,.98,.53,1.71,1.38,2.09,2.37l13.1-7.24-1.63-1.01c-.48-.3-.63-.94-.33-1.42s.94-.63,1.42-.33l3.12,1.94c.31,.19,.5,.54,.49,.9s-.21,.7-.53,.88l-15.35,8.47v4.84c0,.37-.2,.71-.52,.9l-5.13,2.94c-.16,.09-.34,.14-.51,.14Zm-7.43-17.45c-.64,0-1.26-.16-1.82-.49-.07-.04-.14-.09-.21-.13l-29.11-16.07c-1.11-.61-1.9-1.57-2.22-2.69-.17-.56-.2-.95-.17-1.24,.01-2.49,1.2-4.21,3.95-5.73,.01,0,.02-.01,.03-.02l27.76-15.32c.31-.17,.69-.17,1,0l27.49,15.18c.8,.44,1.28,1.24,1.28,2.14s-.48,1.7-1.28,2.14l-25.53,14.09c-2.11,1.17-2.9,2.24-2.9,3.98,0,.81,.37,1.54,.96,1.88,.52,.31,1.16,.28,1.84-.1l25.34-13.99-1.2-.75c-.16,0-.31-.05-.45-.13l-1.04-.57c-.33-.18-.53-.53-.53-.9,0-.38,.2-.72,.53-.9l2.29-1.26c.42-.23,.94-.15,1.26,.21,.32,.35,.36,.88,.09,1.28l-.57,.83,2.21,1.38c.31,.19,.5,.54,.49,.9s-.21,.7-.53,.88l-26.87,14.84c-.68,.38-1.38,.56-2.07,.56Zm-31.46-20.48c0,.07,.01,.26,.09,.52,.17,.59,.62,1.12,1.24,1.46l26.35,14.54c0-.07,0-.13,0-.2,0-2.52,1.18-4.25,3.96-5.78l25.53-14.09c.19-.1,.21-.26,.21-.34s-.03-.23-.21-.34l-26.99-14.9-25.6,14.14,21.39,11.35c.5,.27,.7,.89,.43,1.4-.27,.5-.9,.7-1.4,.43l-22.57-11.97c-1.75,1.07-2.42,2.1-2.42,3.7,0,.03,0,.06,0,.09Z"/>
  <rect class="cls-1" x="5" y="5" width="90" height="90"/>
  <polygon points="74.67 35.81 50.74 22.57 46.3 25.03 70.37 38.19 74.67 35.81"/>
  <path d="M50,95c-24.81,0-45-20.19-45-45S25.19,5,50,5s45,20.19,45,45-20.19,45-45,45Zm0-87.35C26.64,7.65,7.65,26.65,7.65,50s19,42.35,42.35,42.35,42.35-19,42.35-42.35S73.35,7.65,50,7.65Z"/>
  <rect class="cls-1" x="5" y="5" width="90" height="90"/>
</svg>