<?xml version="1.0" encoding="utf-8"?>
<!-- Generator: Adobe Illustrator 27.0.0, SVG Export Plug-In . SVG Version: 6.00 Build 0)  -->
<svg version="1.1" id="Layer_1" xmlns="http://www.w3.org/2000/svg" xmlns:xlink="http://www.w3.org/1999/xlink" x="0px" y="0px"
	 viewBox="0 0 512 512" xml:space="preserve">
<g>
	<path d="M430.18,110.81c0-4.68-1.31-8.03-4.38-11.21c-20.14-20.8-41.33-42.89-62.99-65.67c-2.91-3.06-6.19-4.43-10.62-4.43
		c-0.04,0-0.07,0-0.11,0c-20.44,0.1-41.23,0.09-61.33,0.08c-6.71,0-13.43,0-20.14-0.01l-36.31-0.01
		c-30.89-0.01-62.83-0.02-94.24,0.03c-15.97,0.02-27.27,11.22-27.48,27.22c-0.01,0.94-0.01,1.88-0.01,2.94v0.09
		c-8.62-0.25-15.96,2.23-21.29,7.24c-6.25,5.88-9.53,15.02-9.48,26.45c0.42,88.92,0.36,179.33,0.31,266.76
		c-0.02,30.68-0.04,61.37-0.04,92.05c0,19.73,10.47,30.16,30.28,30.17l260.63,0l1.08,0c0.36,0,0.72,0,1.08,0
		c0.88,0,1.78-0.01,2.67-0.05c14.25-0.63,25.25-11.87,25.59-26.16c0.03-1.28,0.02-2.57,0.01-3.83c0-0.12,0-0.23,0-0.35
		c17.96-2.18,26.69-12.05,26.69-30.14V370.5C430.11,285.39,430.11,197.37,430.18,110.81z M362.44,54.78l43.27,45.33h-30.72
		c-6.4,0-9.92,0-11.24-1.3c-1.31-1.3-1.31-4.77-1.31-11.09V54.78z M386.35,463.62c-2.33,2.89-6.22,4.42-11.25,4.43
		c-88.16,0.02-176.32,0.02-264.48,0c-9.35,0-14.08-4.73-14.09-14.06c-0.02-121.85-0.02-243.7,0-365.55c0-4.8,1.24-8.37,3.69-10.6
		c2.3-2.09,5.78-3.14,10.39-3.14c0.64,0,1.29,0.02,1.97,0.06v14.69c0,14.53,0,70.02,0,96.32c0,0.26-0.01,0.52-0.01,0.79l0,0.89
		l0,8.88c-0.01,0.33-0.03,0.68-0.06,1.04c-0.07,0.88-0.15,1.84,0.06,2.72l0,29.99l0,191.85c0,19.38,10.66,30.06,30.01,30.06
		l245.96,0C389.37,456.81,388.61,460.81,386.35,463.62z M415.67,422.16c0,11.08-4.25,15.39-15.16,15.39
		c-86.09,0.01-172.19,0.01-258.28,0c-10.8,0-15.2-4.47-15.2-15.41l0-222.12c0.25-0.97,0.16-2.05,0.08-3.04
		c-0.04-0.4-0.07-0.8-0.08-1.17l0-7.2l0-1.09c0-0.52,0-1.04-0.01-1.55c0-21.05,0-66.22,0-73.77c0-18.28-0.01-36.57,0.02-54.85
		c0.01-8.58,4.72-13.31,13.26-13.31C198.09,44,255.88,44,313.66,44.01l32.51,0c0.57,0,1.13,0.03,1.84,0.07l0,14.11
		c0,11.63,0,23.08,0,34.53c0.01,14.26,7.48,21.81,21.61,21.82c9.82,0.01,19.64,0.01,29.45,0l16.6,0L415.67,422.16z"/>
	<g>
		<path d="M267.08,156.5c-5.52,0-11.04,0-16.57-0.01l-16.57,0l-15.43,0c-13.43,0-26.85,0.01-40.28-0.01
			c-10.15-0.01-15.1-4.99-15.13-15.21c-0.03-10.93-0.05-21.63,0.01-32.39c0.05-9.32,5.16-14.46,14.41-14.47
			c37.76-0.04,75.89-0.04,113.31,0c9.24,0.01,14.36,5.15,14.4,14.47c0.05,10.22,0.05,20.98,0,32.87c-0.04,9.61-5.1,14.7-14.64,14.73
			C282.76,156.49,274.92,156.5,267.08,156.5z M177.86,141.89H290.1v-32.84H177.86V141.89z"/>
	</g>
	<g>
		<path d="M172.29,232.6c-2.65-0.03-6.56-1.58-8.25-4.04c-1.3-1.9-1.47-4.09-0.46-6.01c1.36-2.59,4.51-4.21,8.22-4.22
			c13.27-0.04,96.78-0.03,110.02,0c3.11,0.01,5.63,1.03,7.11,2.87c1.24,1.55,1.66,3.62,1.18,5.82c-0.84,3.81-3.6,5.75-8.21,5.75
			c-0.02,0-0.04,0-0.05,0C273.29,232.74,186.19,232.74,172.29,232.6z"/>
	</g>
	<g>
		<path d="M172.29,271.67c-2.65-0.03-6.56-1.58-8.25-4.04c-1.3-1.9-1.47-4.09-0.46-6.01c1.36-2.59,4.51-4.21,8.22-4.22
			c13.27-0.04,185.09-0.03,198.32,0c3.11,0.01,5.63,1.03,7.11,2.87c1.24,1.55,1.66,3.62,1.18,5.82c-0.84,3.81-3.6,5.75-8.21,5.75
			c-0.02,0-0.04,0-0.05,0C361.59,271.81,186.19,271.81,172.29,271.67z"/>
	</g>
	<g>
		<path d="M172.29,311.71c-2.65-0.03-6.56-1.58-8.25-4.04c-1.3-1.9-1.47-4.09-0.46-6.01c1.36-2.59,4.51-4.21,8.22-4.22
			c13.27-0.04,185.09-0.03,198.32,0c3.11,0.01,5.63,1.03,7.11,2.87c1.24,1.55,1.66,3.62,1.18,5.82c-0.84,3.81-3.6,5.75-8.21,5.75
			c-0.02,0-0.04,0-0.05,0C361.59,311.84,186.19,311.85,172.29,311.71z"/>
	</g>
	<g>
		<path d="M172.29,350.79c-2.65-0.03-6.56-1.58-8.25-4.04c-1.3-1.9-1.47-4.09-0.46-6.01c1.36-2.59,4.51-4.21,8.22-4.22
			c13.27-0.04,185.09-0.03,198.32,0c3.11,0.01,5.63,1.03,7.11,2.87c1.24,1.55,1.66,3.62,1.18,5.82c-0.84,3.81-3.6,5.75-8.21,5.75
			c-0.02,0-0.04,0-0.05,0C361.59,350.93,186.19,350.93,172.29,350.79z"/>
	</g>
	<g>
		<path d="M172.29,390.83c-2.65-0.03-6.56-1.58-8.25-4.04c-1.3-1.9-1.47-4.09-0.46-6.01c1.36-2.59,4.51-4.21,8.22-4.22
			c13.27-0.04,185.09-0.03,198.32,0c3.11,0.01,5.63,1.03,7.11,2.87c1.24,1.55,1.66,3.62,1.18,5.82c-0.84,3.81-3.6,5.75-8.21,5.75
			c-0.02,0-0.04,0-0.05,0C361.59,390.97,186.19,390.97,172.29,390.83z"/>
	</g>
</g>
</svg>
