<?xml version="1.0" encoding="UTF-8"?>
<svg id="Layer_1" data-name="Layer 1" xmlns="http://www.w3.org/2000/svg" viewBox="0 0 100 100">
  <defs>
    <style>
      .cls-1 {
        fill: #939598;
      }
    </style>
  </defs>
  <path class="cls-1" d="M77.46,85.01c-.81,0-1.47-.66-1.47-1.47,0-6.33,2.9-10.3,5.45-13.81,.73-1,1.45-1.99,2.09-3.01,4.33-6.99,5.04-9.6,5.94-12.92,.32-1.16,.65-2.39,1.16-3.88l.62-1.82c1.12-3.21,2.65-7.61,1.26-8.27-.2-.09-.47-.01-.68,.07-1.45,.57-3.7,3.16-5.46,7.64-1.26,3.2-1.87,4.77-2.57,6.61-.01,.04-.03,.08-.04,.11-.18,.49-.38,1.01-.59,1.58-.53,1.43-1.69,2.54-3.18,3.04-2.38,.8-5.35,2.53-5.95,6.22-.13,.8-.88,1.36-1.69,1.21-.8-.13-1.34-.89-1.21-1.69,.88-5.4,5.34-7.66,7.92-8.53,.64-.22,1.14-.68,1.36-1.28,.19-.5,.36-.96,.52-1.4V26.69c0-1.59-.97-2.89-2.17-2.89-1.21,0-2.23,1.32-2.24,2.88v18.86c0,.81-.66,1.47-1.47,1.47s-1.47-.66-1.47-1.47V26.69h0v-5.88c0-.91-.31-1.75-.87-2.3-.26-.26-.7-.58-1.3-.58h0c-.54,0-1.06,.27-1.47,.75-.47,.56-.73,1.31-.73,2.13v24.74c0,.81-.66,1.47-1.47,1.47s-1.47-.66-1.47-1.47V24.72c0-1.56-1.01-2.87-2.2-2.87h0c-.6,0-1.05,.32-1.33,.59-.56,.56-.87,1.39-.87,2.28v20.83c0,.81-.66,1.47-1.47,1.47s-1.47-.66-1.47-1.47v-12.74c0-1.34-.85-2.48-1.86-2.48h0c-.61,0-1.03,.4-1.23,.63-.4,.47-.63,1.15-.63,1.84v4.92c0,.81-.66,1.47-1.47,1.47s-1.47-.66-1.47-1.47v-4.92c0-1.4,.48-2.73,1.33-3.74,.91-1.08,2.15-1.67,3.48-1.67h.01c.66,0,1.28,.15,1.86,.42v-3.08c0-1.67,.63-3.26,1.74-4.36,.94-.94,2.03-1.39,3.41-1.45,.83,0,1.62,.23,2.32,.63,.2-1.03,.65-1.98,1.3-2.76,.98-1.16,2.22-1.77,3.72-1.79,1.25,0,2.45,.51,3.38,1.44,1.1,1.1,1.73,2.7,1.72,4.38v.63c.68-.37,1.44-.57,2.24-.57,2.87,0,5.11,2.56,5.11,5.83v19.18c1.89-4.52,4.43-7.73,6.88-8.7,1.35-.54,2.38-.29,3.01,0,3.78,1.78,1.99,6.92,.27,11.89l-.62,1.79c-.48,1.43-.8,2.61-1.11,3.72-.93,3.4-1.73,6.35-6.28,13.7-.67,1.09-1.43,2.13-2.21,3.19-2.51,3.45-4.89,6.71-4.89,12.08,0,.81-.66,1.47-1.47,1.47Zm-17.94,0c-.81,0-1.47-.66-1.47-1.47s-.03-1.54-.07-2.25c-.05-.81,.56-1.51,1.37-1.56,.84-.06,1.51,.56,1.56,1.37,.05,.77,.08,1.58,.08,2.44,0,.81-.66,1.47-1.47,1.47Zm-19.03,0c-.81,0-1.47-.66-1.47-1.47,0-.86,.03-1.67,.08-2.44,.05-.81,.75-1.44,1.56-1.37,.81,.05,1.43,.75,1.37,1.56-.04,.7-.07,1.45-.07,2.25s-.66,1.47-1.47,1.47Zm-17.96,0c-.81,0-1.47-.66-1.47-1.47,0-5.37-2.37-8.63-4.89-12.08-.77-1.06-1.54-2.11-2.21-3.19-4.55-7.35-5.35-10.29-6.28-13.7-.3-1.11-.62-2.29-1.11-3.72l-.62-1.79c-1.73-4.97-3.51-10.11,.27-11.89,.63-.3,1.66-.54,3.01,0,2.46,.97,5.01,4.21,6.88,8.7V26.69c0-3.21,2.28-5.82,5.1-5.83,.8,0,1.56,.21,2.24,.57v-.63c0-1.68,.63-3.28,1.72-4.38,.93-.93,2.13-1.44,3.38-1.44h.01c1.41,0,2.73,.63,3.71,1.79,.66,.77,1.1,1.73,1.3,2.76,.7-.4,1.48-.63,2.32-.63h0c1.26,0,2.47,.52,3.4,1.45,1.11,1.1,1.74,2.69,1.74,4.36v3.08c.57-.27,1.2-.42,1.86-.42,1.19,.09,2.57,.59,3.48,1.67,.85,1.01,1.33,2.34,1.33,3.74v5.07c0,.81-.66,1.47-1.47,1.47s-1.47-.66-1.47-1.47v-5.07c0-.7-.23-1.37-.63-1.84-.2-.24-.63-.63-1.23-.63h0c-1.01,0-1.86,1.14-1.86,2.48v12.74c0,.81-.66,1.47-1.47,1.47s-1.47-.66-1.47-1.47V24.72c0-.9-.32-1.73-.87-2.28-.27-.27-.72-.59-1.33-.59h0c-1.19,0-2.2,1.32-2.2,2.87v20.83c0,.81-.66,1.47-1.47,1.47s-1.47-.66-1.47-1.47V20.8c0-.81-.26-1.57-.73-2.13-.41-.48-.93-.75-1.47-.75h0c-.6,0-1.04,.32-1.3,.58-.55,.55-.87,1.39-.87,2.3v5.87h0v18.87c0,.81-.66,1.47-1.47,1.47s-1.47-.66-1.47-1.47V26.69c0-1.56-1.03-2.88-2.24-2.88-1.19,0-2.16,1.3-2.16,2.89v26.73c.16,.44,.33,.9,.52,1.4,.22,.59,.72,1.06,1.36,1.28,2.58,.87,7.03,3.13,7.92,8.53,.13,.8-.41,1.56-1.21,1.69-.79,.14-1.56-.41-1.69-1.21-.6-3.68-3.57-5.42-5.95-6.22-1.49-.5-2.65-1.61-3.18-3.04-.21-.57-.41-1.09-.59-1.58-.02-.04-.03-.08-.04-.12-.69-1.84-1.31-3.4-2.54-6.54-1.79-4.54-4.04-7.13-5.49-7.7-.21-.08-.49-.17-.67-.07-1.39,.66,.14,5.06,1.25,8.27l.62,1.82c.5,1.5,.84,2.72,1.16,3.88,.9,3.31,1.61,5.93,5.94,12.92,.63,1.02,1.36,2.01,2.09,3.01,2.56,3.51,5.45,7.48,5.45,13.81,0,.81-.66,1.47-1.47,1.47Z"/>
  <path d="M59.99,78.11c-.56,0-1.12-.13-1.63-.41l-8.1-4.26c-.16-.08-.36-.09-.53,0l-8.09,4.26c-1.19,.62-2.61,.52-3.69-.27-1.09-.79-1.62-2.1-1.4-3.42l1.55-9.01c.03-.18-.03-.37-.17-.5l-6.54-6.37c-.96-.94-1.3-2.31-.89-3.59,.42-1.28,1.5-2.19,2.83-2.38l9.05-1.31c.18-.03,.34-.14,.42-.31l4.05-8.2c1.2-2.4,5.09-2.4,6.28,0,0,0,0,0,0,0l4.05,8.2c.08,.16,.24,.28,.43,.31l9.04,1.31c1.33,.19,2.41,1.11,2.83,2.38,.41,1.28,.07,2.65-.89,3.59l-6.56,6.38c-.13,.13-.19,.31-.16,.5l1.55,9.01c.22,1.32-.31,2.63-1.4,3.42-.61,.45-1.33,.67-2.06,.67Zm-9.99-7.67c.56,0,1.11,.13,1.62,.4l8.1,4.26c.27,.15,.49,.03,.59-.04,.11-.08,.28-.25,.22-.55l-1.55-9.01c-.19-1.13,.18-2.29,1-3.09l6.56-6.39c.22-.21,.18-.45,.14-.57-.04-.12-.15-.34-.45-.38l-9.05-1.31c-1.14-.17-2.13-.89-2.63-1.91l-4.05-8.2c-.27-.54-.74-.54-1.01,0l-4.05,8.2c-.51,1.03-1.49,1.74-2.63,1.91l-9.06,1.32c-.3,.04-.41,.26-.45,.38-.04,.13-.08,.36,.14,.58l6.55,6.37c.83,.81,1.2,1.97,1.01,3.1l-1.55,9.01c-.05,.3,.12,.47,.22,.55,.11,.08,.33,.19,.59,.04l8.1-4.26c.51-.27,1.07-.4,1.63-.4Z"/>
</svg>