<?xml version="1.0" encoding="UTF-8"?>
<svg id="Layer_1" data-name="Layer 1" xmlns="http://www.w3.org/2000/svg" viewBox="0 0 100 100">
  <defs>
    <style>
      .cls-1 {
        fill: #939598;
      }
    </style>
  </defs>
  <path class="cls-1" d="M33.04,96c-1.45,0-2.88-.45-4.1-1.34-2.17-1.58-3.24-4.2-2.79-6.85l2.4-13.98c.14-.8-.13-1.61-.71-2.18l-10.16-9.9c-1.92-1.87-2.6-4.62-1.77-7.17,.83-2.55,3-4.38,5.65-4.76l14.04-2.04c.8-.12,1.5-.62,1.85-1.35l6.28-12.72c1.19-2.41,3.59-3.9,6.28-3.9,2.68,0,5.09,1.5,6.28,3.9l6.27,12.71c.36,.73,1.05,1.23,1.86,1.35l14.03,2.04c2.66,.39,4.82,2.21,5.65,4.77,.83,2.55,.15,5.3-1.77,7.17l-2.59,2.57c-.66,.65-1.71,.64-2.36,0-.65-.65-.64-1.71,0-2.36l2.6-2.58c1.03-1.01,1.38-2.41,.94-3.77s-1.55-2.29-2.96-2.5l-14.03-2.04c-1.89-.27-3.52-1.46-4.37-3.18l-6.27-12.71c-1.26-2.56-5.31-2.56-6.58,0l-6.28,12.71c-.84,1.71-2.47,2.9-4.37,3.18l-14.03,2.04c-1.41,.21-2.52,1.14-2.96,2.5-.44,1.36-.09,2.76,.93,3.75l10.15,9.9c1.37,1.33,1.99,3.25,1.67,5.13l-2.4,13.98c-.24,1.41,.3,2.75,1.46,3.59,1.15,.84,2.6,.94,3.86,.28l8.37-4.41c.82-.43,1.82-.11,2.25,.7,.43,.81,.12,1.82-.7,2.25l-8.37,4.41c-1.03,.54-2.15,.81-3.26,.81Z"/>
  <path d="M72.73,96c-.77,0-1.54-.18-2.25-.56l-7.46-3.92c-.23-.12-.51-.12-.74,0l-7.45,3.92c-1.64,.86-3.59,.72-5.09-.37-1.5-1.09-2.23-2.9-1.92-4.73l1.42-8.3c.04-.25-.04-.51-.23-.7l-6.03-5.88c-1.33-1.29-1.8-3.19-1.22-4.95,.57-1.76,2.07-3.02,3.9-3.29l8.33-1.21c.26-.04,.48-.2,.6-.44l3.72-7.54c.82-1.66,2.48-2.69,4.33-2.69s3.51,1.03,4.33,2.69h0l3.72,7.55c.12,.23,.34,.4,.59,.43l8.33,1.21c1.83,.27,3.33,1.53,3.9,3.29,.57,1.76,.1,3.66-1.22,4.95l-6.03,5.88c-.19,.18-.27,.44-.23,.7l1.42,8.3c.31,1.83-.42,3.64-1.92,4.73-.85,.62-1.84,.93-2.84,.93Zm-10.07-7.9c.66,0,1.31,.16,1.91,.47l7.46,3.92c.77,.41,1.4,.02,1.58-.12,.23-.16,.74-.64,.59-1.47l-1.42-8.3c-.23-1.34,.21-2.71,1.19-3.65l6.02-5.87c.6-.59,.46-1.27,.38-1.53-.07-.21-.36-.9-1.21-1.02l-8.33-1.21c-1.33-.19-2.5-1.03-3.1-2.25l-3.73-7.55c-.38-.77-1.12-.83-1.34-.83s-.96,.06-1.34,.83l-3.72,7.55c-.61,1.22-1.77,2.06-3.11,2.26l-8.33,1.21c-.84,.12-1.13,.75-1.21,1.02-.09,.26-.22,.95,.38,1.53l6.03,5.88c.97,.95,1.42,2.31,1.19,3.65l-1.42,8.3c-.14,.83,.37,1.3,.59,1.47,.18,.13,.82,.52,1.58,.12l7.45-3.92c.6-.31,1.26-.47,1.92-.47Z"/>
  <path class="cls-1" d="M33.48,45.23c-.92,0-1.67-.75-1.67-1.67V23.83c0-.92,.75-1.67,1.67-1.67s1.67,.75,1.67,1.67v19.73c0,.92-.75,1.67-1.67,1.67Z"/>
  <path d="M58.26,30.13c-.92,0-1.67-.75-1.67-1.67V12.56c0-.92,.75-1.67,1.67-1.67s1.67,.75,1.67,1.67v15.91c0,.92-.75,1.67-1.67,1.67Z"/>
  <path class="cls-1" d="M50,26.62c-.92,0-1.67-.75-1.67-1.67v-5.06c0-.92,.75-1.67,1.67-1.67s1.67,.75,1.67,1.67v5.06c0,.92-.75,1.67-1.67,1.67Z"/>
  <path d="M41.74,29.77c-.92,0-1.67-.75-1.67-1.67v-11.25c0-.92,.75-1.67,1.67-1.67s1.67,.75,1.67,1.67v11.25c0,.92-.75,1.67-1.67,1.67Z"/>
  <path class="cls-1" d="M48.33,5.65c0-.89,.76-1.65,1.65-1.65h0c.93,0,1.69,.76,1.69,1.65h0c0,.93-.76,1.69-1.69,1.69h0c-.89,0-1.65-.76-1.65-1.69Z"/>
  <path class="cls-1" d="M33.48,18.76c-.92,0-1.67-.75-1.67-1.67V8.04c0-.92,.75-1.67,1.67-1.67s1.67,.75,1.67,1.67v9.05c0,.92-.75,1.67-1.67,1.67Z"/>
  <path class="cls-1" d="M66.52,44.77c-.92,0-1.67-.75-1.67-1.67V24.75c0-.92,.75-1.67,1.67-1.67s1.67,.75,1.67,1.67v18.36c0,.92-.75,1.67-1.67,1.67Z"/>
  <path class="cls-1" d="M66.52,19.67c-.92,0-1.67-.75-1.67-1.67v-1.76c0-.92,.75-1.67,1.67-1.67s1.67,.75,1.67,1.67v1.76c0,.92-.75,1.67-1.67,1.67Z"/>
  <path d="M25.23,45.68c-.92,0-1.67-.75-1.67-1.67V25.66c0-.92,.75-1.67,1.67-1.67s1.67,.75,1.67,1.67v18.35c0,.92-.75,1.67-1.67,1.67Z"/>
  <path d="M25.23,20.58c-.92,0-1.67-.75-1.67-1.67v-1.76c0-.92,.75-1.67,1.67-1.67s1.67,.75,1.67,1.67v1.76c0,.92-.75,1.67-1.67,1.67Z"/>
  <path d="M74.77,45.89c-.92,0-1.67-.75-1.67-1.67v-5.06c0-.92,.75-1.67,1.67-1.67s1.67,.75,1.67,1.67v5.06c0,.92-.75,1.67-1.67,1.67Z"/>
  <path d="M73.09,24.94c0-.93,.76-1.69,1.69-1.69h0c.93,0,1.65,.76,1.65,1.69h0c0,.89-.71,1.65-1.65,1.65h0c-.93,0-1.69-.76-1.69-1.65Z"/>
</svg>