<?xml version="1.0" encoding="UTF-8"?>
<svg id="Layer_1" data-name="Layer 1" xmlns="http://www.w3.org/2000/svg" viewBox="0 0 100 100">
  <defs>
    <style>
      .cls-1 {
        fill: #939598;
      }
    </style>
  </defs>
  <path class="cls-1" d="M49.99,52.15c-1.05,0-2.1-.27-3-.81l-17.44-10.43c-2-1.26-3.18-3.26-3.18-5.36V5.58c0-.57,.31-1.1,.81-1.37s1.11-.25,1.6,.05l19.77,12.51c.82,.52,2.05,.51,2.87,0l2.58-1.63c.73-.47,1.7-.25,2.17,.49,.46,.73,.24,1.7-.49,2.17l-2.58,1.63c-1.86,1.17-4.36,1.17-6.22,0L29.51,8.43v27.13c0,1.03,.61,2.01,1.68,2.68l17.4,10.41c.81,.48,1.98,.49,2.78,0l17.46-10.44c1.04-.66,1.65-1.64,1.65-2.66V8.42l-1.6,1.01c-.73,.47-1.7,.24-2.16-.49-.46-.73-.24-1.7,.49-2.17l4-2.53c.49-.31,1.1-.33,1.6-.05,.5,.28,.81,.8,.81,1.37v29.98c0,2.09-1.17,4.08-3.14,5.33l-17.5,10.47c-.89,.54-1.95,.81-3,.81Z"/>
  <path d="M57.9,16.23c-.51,0-1.01-.25-1.31-.71-.48-.73-.27-1.7,.45-2.17l5.78-3.79c.73-.48,1.7-.27,2.17,.45,.48,.73,.27,1.7-.45,2.17l-5.78,3.79c-.27,.17-.57,.26-.86,.26Z"/>
  <path class="cls-1" d="M70.47,87.49c-.41,0-.82-.16-1.12-.47l-1.72-1.76c-.61-.62-.59-1.61,.03-2.22,.62-.61,1.61-.59,2.22,.03l1.72,1.76c.61,.62,.59,1.61-.03,2.22-.3,.3-.7,.45-1.1,.45Zm-41.43,0c-.4,0-.79-.15-1.1-.45-.62-.6-.63-1.6-.03-2.22l1.72-1.76c.61-.62,1.6-.63,2.22-.03,.62,.6,.63,1.6,.03,2.22l-1.72,1.76c-.31,.31-.71,.47-1.12,.47Zm37.6-26.08c-.4,0-.79-.15-1.1-.45-.62-.61-.63-1.6-.03-2.22l1.76-1.8c.61-.62,1.61-.63,2.22-.03,.62,.61,.63,1.6,.03,2.22l-1.76,1.8c-.31,.31-.71,.47-1.12,.47Zm-33.78,0c-.41,0-.82-.16-1.12-.47l-1.76-1.8c-.61-.62-.59-1.61,.03-2.22,.62-.61,1.61-.6,2.22,.03l1.76,1.8c.61,.62,.59,1.61-.03,2.22-.3,.3-.7,.45-1.1,.45Zm17.14-5.41c-.87,0-1.57-.7-1.57-1.57v-4.16c0-.87,.7-1.57,1.57-1.57s1.57,.7,1.57,1.57v4.16c0,.87-.7,1.57-1.57,1.57Z"/>
  <path d="M38.76,96c-.78,0-1.56-.24-2.23-.72-1.22-.88-1.82-2.35-1.57-3.84l1.74-10.33c.04-.25-.04-.52-.22-.7l-7.37-7.32c-1.06-1.04-1.43-2.58-.96-4,.46-1.41,1.65-2.42,3.1-2.64l10.18-1.51c.23-.03,.43-.18,.54-.4l4.55-9.41c1.31-2.69,5.62-2.69,6.93,0h0l4.55,9.41c.1,.22,.31,.37,.54,.4l10.19,1.51c1.45,.22,2.64,1.23,3.1,2.63,.46,1.42,.1,2.96-.96,4l-7.37,7.32c-.18,.18-.26,.44-.22,.69l1.74,10.33c.25,1.49-.35,2.96-1.57,3.83-1.2,.86-2.74,.96-4.03,.26l-9.11-4.88c-.2-.11-.45-.1-.65,0l-9.11,4.88c-.57,.31-1.19,.46-1.81,.46Zm11.24-39.91c-.16,0-.47,.06-.64,.42l-4.55,9.41c-.56,1.16-1.65,1.96-2.9,2.14l-10.18,1.51c-.38,.06-.52,.34-.58,.51-.04,.14-.12,.5,.19,.8l7.37,7.32c.9,.9,1.31,2.18,1.1,3.44l-1.74,10.34c-.07,.44,.19,.68,.3,.76,.13,.1,.4,.22,.72,.05l9.11-4.88c1.13-.6,2.48-.61,3.61,0l9.11,4.88c.33,.17,.59,.05,.72-.05,.12-.08,.38-.32,.3-.76l-1.74-10.34c-.21-1.26,.2-2.55,1.1-3.44l7.37-7.32c.31-.3,.23-.66,.19-.8-.05-.16-.2-.45-.58-.51l-10.18-1.51c-1.26-.18-2.34-.98-2.9-2.14l-4.55-9.41c-.18-.36-.48-.42-.64-.42Zm-.01-20.67c-.9,0-1.8-.24-2.61-.72l-13.44-8.02c-.74-.45-.99-1.41-.54-2.15,.44-.74,1.41-.99,2.15-.54l13.44,8.02c.62,.37,1.38,.37,1.99,0l13.44-8.02c.74-.45,1.71-.2,2.15,.54,.44,.74,.2,1.71-.54,2.15l-13.44,8.02c-.8,.48-1.7,.72-2.6,.72Z"/>
</svg>