<?xml version="1.0" encoding="UTF-8"?>
<svg id="Layer_1" data-name="Layer 1" xmlns="http://www.w3.org/2000/svg" viewBox="0 0 100 100">
  <defs>
    <style>
      .cls-1 {
        fill: #939598;
      }
    </style>
  </defs>
  <path class="cls-1" d="M50,98.33c-.85,0-1.55-.69-1.55-1.55v-4.59c-22.05-.8-39.85-18.59-40.64-40.64H3.22c-.85,0-1.55-.69-1.55-1.55s.69-1.55,1.55-1.55H7.81C8.61,26.4,26.4,8.61,48.45,7.81V3.22c0-.85,.69-1.55,1.55-1.55s1.55,.69,1.55,1.55V7.81c22.05,.8,39.85,18.59,40.64,40.64h4.59c.85,0,1.55,.69,1.55,1.55s-.69,1.55-1.55,1.55h-4.59c-.8,22.05-18.59,39.85-40.64,40.64v4.59c0,.85-.69,1.55-1.55,1.55Zm0-15.28c.85,0,1.55,.69,1.55,1.55v4.5c20.35-.79,36.76-17.2,37.55-37.55h-4.5c-.85,0-1.55-.69-1.55-1.55s.69-1.55,1.55-1.55h4.5c-.79-20.34-17.2-36.75-37.55-37.55v4.5c0,.85-.69,1.55-1.55,1.55s-1.55-.69-1.55-1.55v-4.5C28.11,11.7,11.7,28.11,10.9,48.45h4.5c.85,0,1.55,.69,1.55,1.55s-.69,1.55-1.55,1.55h-4.5c.79,20.35,17.2,36.76,37.55,37.55v-4.5c0-.85,.69-1.55,1.55-1.55Z"/>
  <path d="M61.6,71.88c-.62,0-1.24-.15-1.82-.45l-9.4-4.94c-.24-.12-.52-.13-.77,0l-9.39,4.94c-1.33,.7-2.9,.58-4.12-.3-1.21-.88-1.81-2.34-1.55-3.82l1.8-10.47c.04-.26-.04-.53-.23-.72l-7.61-7.42c-1.07-1.04-1.45-2.58-.99-4,.46-1.42,1.67-2.44,3.16-2.66l10.51-1.53c.27-.04,.5-.21,.62-.45l4.7-9.52c.67-1.35,1.88-2.29,3.51-2.18,1.5,0,2.83,.84,3.49,2.18l4.7,9.53c.12,.24,.35,.4,.61,.44l10.52,1.53c1.48,.21,2.69,1.23,3.15,2.66,.46,1.42,.08,2.96-.99,4.01l-7.61,7.42c-.19,.19-.28,.46-.24,.72l1.8,10.47c.25,1.48-.34,2.94-1.55,3.82-.68,.5-1.49,.75-2.29,.75Zm-11.6-40.44c-.16,0-.53,.05-.73,.46l-4.7,9.53c-.57,1.15-1.68,1.95-2.95,2.13l-10.51,1.53c-.45,.07-.61,.41-.66,.55-.05,.14-.12,.52,.21,.83l7.61,7.42c.92,.89,1.34,2.18,1.12,3.45l-1.8,10.48c-.08,.45,.2,.71,.33,.8,.12,.09,.45,.27,.86,.06l9.4-4.94c1.14-.6,2.5-.6,3.64,0l9.4,4.94c.4,.21,.73,.03,.86-.06,.12-.09,.4-.35,.33-.8l-1.8-10.47c-.21-1.27,.21-2.56,1.13-3.45l7.61-7.42c.33-.32,.25-.69,.21-.84s-.21-.49-.66-.55l-10.52-1.53c-1.27-.18-2.37-.98-2.94-2.13l-4.7-9.53s0,0,0,0c-.2-.41-.57-.45-.72-.45h0Z"/>
  <path class="cls-1" d="M50.21,78.48c-.85,0-1.55-.69-1.55-1.55v-.95c0-.85,.69-1.55,1.55-1.55s1.55,.69,1.55,1.55v.95c0,.85-.69,1.55-1.55,1.55Zm-22.9-4.33c-.39,0-.79-.15-1.09-.45-.6-.6-.6-1.58,0-2.19l1.88-1.88c.6-.61,1.58-.61,2.19,0s.6,1.58,0,2.19l-1.88,1.88c-.3,.3-.7,.45-1.09,.45Zm45.38,0c-.39,0-.79-.15-1.09-.45l-1.88-1.88c-.6-.6-.6-1.58,0-2.18,.6-.61,1.58-.61,2.18,0l1.88,1.88c.6,.6,.6,1.58,0,2.18-.3,.3-.7,.45-1.09,.45Zm5.03-22.48h-1.27c-.85,0-1.55-.69-1.55-1.55s.69-1.55,1.55-1.55h1.27c.85,0,1.55,.69,1.55,1.55s-.69,1.55-1.55,1.55Zm-54.19,0h-1.27c-.85,0-1.55-.69-1.55-1.55s.69-1.55,1.55-1.55h1.27c.85,0,1.55,.69,1.55,1.55s-.69,1.55-1.55,1.55Zm7.96-18.29c-.39,0-.79-.15-1.09-.45l-1.93-1.93c-.6-.6-.6-1.58,0-2.18,.6-.61,1.58-.61,2.18,0l1.93,1.93c.6,.6,.6,1.58,0,2.18-.3,.3-.7,.45-1.09,.45Zm37,0c-.4,0-.79-.15-1.09-.45-.6-.6-.6-1.58,0-2.19l1.93-1.93c.6-.61,1.58-.6,2.19,0,.6,.6,.6,1.58,0,2.19l-1.93,1.93c-.3,.3-.7,.45-1.09,.45Zm-18.29-8.73c-.85,0-1.55-.69-1.55-1.55v-.95c0-.85,.69-1.55,1.55-1.55s1.55,.69,1.55,1.55v.95c0,.85-.69,1.55-1.55,1.55Z"/>
</svg>